<svg width="200" height="200" viewBox="0 0 200 200" xmlns="http://www.w3.org/2000/svg">
  <defs>
    <linearGradient id="purpleGradient" x1="0%" y1="0%" x2="100%" y2="100%">
      <stop offset="0%" style="stop-color:#9333EA;stop-opacity:1" />
      <stop offset="100%" style="stop-color:#C084FC;stop-opacity:1" />
    </linearGradient>
    <linearGradient id="goldAccent" x1="0%" y1="0%" x2="100%" y2="100%">
      <stop offset="0%" style="stop-color:#E9C46A;stop-opacity:1" />
      <stop offset="100%" style="stop-color:#F4D89C;stop-opacity:1" />
    </linearGradient>
  </defs>
  
  <!-- Background circle -->
  <circle cx="100" cy="100" r="90" fill="url(#purpleGradient)" opacity="0.1"/>
  
  <!-- Human figure (abstract) -->
  <g transform="translate(100, 100)">
    <!-- Head -->
    <circle cx="0" cy="-35" r="25" fill="url(#purpleGradient)" stroke="url(#goldAccent)" stroke-width="3"/>
    
    <!-- Body (abstract shape) -->
    <path d="M-30,0 Q-30,-10 -20,-15 L-10,-15 L-10,-30 L10,-30 L10,-15 L20,-15 Q30,-10 30,0 L30,40 Q30,50 20,50 L-20,50 Q-30,50 -30,40 Z" 
          fill="url(#purpleGradient)" 
          stroke="url(#goldAccent)" 
          stroke-width="2"/>
    
    <!-- Heart symbol (representing human touch) -->
    <path d="M0,10 C-5,5 -10,5 -10,10 C-10,15 -5,20 0,25 C5,20 10,15 10,10 C10,5 5,5 0,10 Z" 
          fill="url(#goldAccent)"/>
    
    <!-- Communication waves -->
    <path d="M35,-35 Q40,-35 40,-30" stroke="url(#goldAccent)" stroke-width="2" fill="none" opacity="0.6"/>
    <path d="M40,-35 Q45,-35 45,-25" stroke="url(#goldAccent)" stroke-width="2" fill="none" opacity="0.5"/>
    <path d="M45,-35 Q50,-35 50,-20" stroke="url(#goldAccent)" stroke-width="2" fill="none" opacity="0.4"/>
    
    <!-- Connection dots -->
    <circle cx="-40" cy="0" r="4" fill="url(#goldAccent)" opacity="0.6"/>
    <circle cx="40" cy="0" r="4" fill="url(#goldAccent)" opacity="0.6"/>
    <circle cx="0" cy="60" r="4" fill="url(#goldAccent)" opacity="0.6"/>
  </g>
  
  <!-- Floating elements -->
  <circle cx="30" cy="30" r="3" fill="url(#goldAccent)" opacity="0.5"/>
  <circle cx="170" cy="40" r="4" fill="url(#purpleGradient)" opacity="0.4"/>
  <circle cx="160" cy="160" r="3" fill="url(#goldAccent)" opacity="0.5"/>
  <circle cx="40" cy="150" r="4" fill="url(#purpleGradient)" opacity="0.4"/>
</svg>