<svg xmlns="http://www.w3.org/2000/svg" id="Layer_1" data-name="Layer 1" viewBox="0 0 543.09 85.17"><defs><style> .cls-1 { fill: #fefefe; } .cls-1, .cls-2, .cls-3 { stroke-width: 0px; } .cls-2 { fill: #b68a33; } .cls-3 { fill: #231f20; } </style></defs><g><g><path class="cls-2" d="M41.91,36.23h-.92c-.52.99-1.05,1.98-1.6,2.97-.74,1.21-1.48,2.1-2.23,2.68-.23.06-.53.19-.92.38-1.1.51-2.61.97-4.55,1.39-1,.22-2.02.34-3.05.34-1.65,0-3.11-.32-4.4-.97-1.74-.9-2.61-2.22-2.61-3.95s.71-3.58,2.13-5.73c1.32-2.05,2.52-3.28,3.58-3.66.13.35.03.71-.3,1.06-2.06,2.15-3.09,3.95-3.09,5.4s.87,2.65,2.62,3.42c1.26.58,2.61.87,4.03.87.71,0,1.72-.1,3.01-.29.87-.16,1.73-.37,2.57-.62.32-.09.79-.21,1.41-.33l.15-.19c-.81-1.21-1.9-1.95-3.29-2.24-1.13-.06-2.27-.14-3.43-.24l2.32-4.09h8.56v3.81h0ZM33.4,47.36c-1.13,1.16-1.76,1.73-1.89,1.73-.29,0-1.08-.5-2.37-1.49-1.26.99-1.86,1.49-1.79,1.49-.13,0-1-.53-2.61-1.59,1.16-1.22,1.79-1.83,1.89-1.83s.51.24,1.23.72c.73.48,1.12.72,1.19.72.1,0,.4-.24.9-.72s.78-.72.85-.72c.03,0,.9.56,2.61,1.69h0Z"></path><path class="cls-2" d="M82.31,32.09l-2.32,4.14h-38.76v-3.81h25.99c0-.49.03-1.22.1-2.19.1-.46.4-1.03.92-1.71,1.87-2.44,3.64-3.98,5.32-4.63.39-.16.74-.24,1.06-.24.48,0,.93.09,1.35.26.42.18.73.33.92.46.84.58,1.47,1.17,1.89,1.78.97,1.38,1.43,2.27,1.4,2.65v.82c-1.13-1.12-2.44-1.78-3.92-1.98-.64-.1-1.29-.14-1.93-.14-.9,0-1.66.07-2.27.2-.9.2-1.58.51-2.03.93.87,1.54,2.13,2.77,3.77,3.69.13.07.42.1.87.1.1,0,.69-.06,1.79-.17,1.1-.11,1.69-.17,1.79-.17h4.06Z"></path><path class="cls-2" d="M93.05,36.23h-5.47l-1.69-17.87c0-.13.18-.4.53-.82.58-.74,1.32-1.56,2.23-2.46.1.78.21,1.92.34,3.44.58,6.3,1.05,10.66,1.4,13.09.03.16.18.27.44.34.13.03.35.12.68.27.32.15.56.22.73.22h.82v3.81-.02Z"></path><path class="cls-2" d="M149.06,36.23h-2.76c-.06,0-.26-.07-.58-.2-.55-.23-1.06-.95-1.55-2.16l-1.26,2.36h-50.81v-3.81h51.54c.23-.36.32-.9.29-1.62-.03-.72.02-1.21.15-1.47.23-.59,1.08-1.61,2.56-3.08v2.5c0,.1-.05.45-.15,1.05-.1.61-.15.94-.15,1,0,1.08.64,1.62,1.94,1.62h.77v3.81h0ZM146.06,20.86c0,.16-.1.34-.29.53-.32.32-1.02.84-2.08,1.54-.32.1-.45.14-.39.14-.16,0-.63-.27-1.4-.82-.9-.64-1.35-1.11-1.35-1.4,0-.16.11-.35.34-.58.74-.77,1.37-1.35,1.89-1.74.23-.16.4-.24.53-.24s.62.39,1.48,1.18,1.28,1.25,1.28,1.37v.02Z"></path><path class="cls-2" d="M174.61,36.23h-26.9v-3.81h5.52c.35,0,.68-.24.97-.73.29-.49.44-.89.44-1.21-.39-2.91-.66-5.09-.82-6.54-.26-1.68-.58-3.1-.97-4.26,0-.03-.13-.19-.39-.48-.26-.29-.39-.56-.39-.82,0-.19.11-.5.34-.92s.87-1.32,1.94-2.71c.06,0,.15.02.24.05.03.29.19.66.48,1.11.39.61,1.03,1.19,1.93,1.73.68.39,1.37.77,2.08,1.16-.35.71-.69,1.41-1.02,2.12-.48.87-1.11,1.32-1.89,1.35.42,1.73.63,3.21.63,4.43,0,.1-.1.63-.29,1.59-.23,1.09-.37,1.88-.44,2.36.84-.55,2.06-1.33,3.68-2.36.77-.45,2.11-1.13,4.02-2.03,1.35-.64,2.43-1.06,3.24-1.25.39-.1.65-.14.77-.14.22,0,.69.15,1.4.44.84.36,1.69.99,2.56,1.91,1.06,1.07,1.61,2.03,1.64,2.88l-.87,2.34h2.08v3.81l.02-.02ZM169.34,31.79v-.49c-.84-1.47-1.86-2.33-3.05-2.59-.13-.03-.44-.05-.92-.05-.55,0-1.29.12-2.23.34-.55.16-1.4.59-2.56,1.27-.94.59-1.89,1.16-2.85,1.71h11.13c.1,0,.19-.03.29-.1.1-.07.16-.1.19-.1h0Z"></path><path class="cls-2" d="M187.28,31.99s-.08.07-.15.22c-.06.14-.13.22-.19.22v3.81h-2.81c-.29,0-.59-.16-.9-.47-.31-.32-.49-.62-.56-.92-.81.93-1.4,1.4-1.79,1.4h-7.44v-3.81l8.8-.1c.35,0,.6-.42.73-1.25.03-.45.06-.9.1-1.35.58-.8,1.63-1.94,3.14-3.42.03.55-.11,1.35-.44,2.41-.58,1.77-.87,2.7-.87,2.8.55.55,1.06.82,1.55.82.1,0,.23-.06.41-.17s.31-.17.41-.17v-.02Z"></path><path class="cls-2" d="M205.91,29.65c0,.06-.31.86-.92,2.37-.52,1.26-1.13,2.44-1.84,3.53-.29.45-.55.68-.77.68h-17.08v-3.95h1.93c1.93-1.02,3.36-1.8,4.26-2.35,1.16-.8,2.92-1.95,5.27-3.45,1-.64,1.94-1.12,2.81-1.44.23-.1.5-.14.82-.14.39,0,.77.08,1.16.24,1.68.71,2.97,1.76,3.87,3.15.32.58.48,1.03.48,1.36h.01ZM202.23,31.35c0-.46-.26-.85-.77-1.17-1-.65-1.86-1.08-2.56-1.27-.07-.03-.24-.05-.53-.05-.55,0-.98.08-1.31.24-1.45.82-3.34,1.87-5.66,3.18h9.63c.32,0,.68-.18,1.06-.54.1-.2.15-.33.15-.39h0Z"></path><path class="cls-2" d="M228.6,18.98c0,.22-.71,1.35-2.13,3.37-.03.03-.13.05-.29.05-.26,0-.53-.11-.82-.34-.23,1.36-.52,2.55-.87,3.58-.13.36-.42.9-.87,1.64s-.68,1.15-.68,1.21.11.29.34.68c.68,1.19,1.02,2.48,1.02,3.87,0,1-.1,2.06-.29,3.19h-10.3c-.48-.26-.73-1.07-.73-2.43,0-1.2.18-2.24.53-3.11.16.23.39.54.68.92s.69.57,1.21.57c.77,0,2.32-1.05,4.64-3.15-.23-.55-.82-1.32-1.79-2.33-.97-1-1.77-1.7-2.42-2.09-.13.26-.32.64-.58,1.16-.13-.1-1.66-.98-4.6-2.65-.45-.26-.68-.9-.68-1.93,0-.26.16-1.04.48-2.36h2.9c.1-.19.13-.55.1-1.06,1.39.84,2.92,2.14,4.6,3.9,1.68,1.77,2.9,3.36,3.68,4.77.68-1.12,1.02-2.6,1.02-4.43,0-.96-.32-1.83-.97-2.6l2.9-4.48c0,.32.11.79.34,1.4.1.16.53.53,1.31,1.11,1.51.8,2.27,1.32,2.27,1.54h0ZM221.97,32.37c-.32-.71-.69-1.43-1.11-2.17-.9,1.03-1.66,1.75-2.27,2.17,1.19.13,2.32.13,3.39,0h0Z"></path><path class="cls-2" d="M236.54,29.03c0,2.83-.66,5.23-1.98,7.2l-1.79-14.93c0-.26.4-1.05,1.21-2.37.71-1.13,1.24-1.92,1.6-2.37l.97,12.46h-.01Z"></path><path class="cls-2" d="M257.58,29.72c-.39.88-1.03,1.85-1.94,2.91-.35.03-.87.1-1.55.19-1.19.13-2.24.39-3.15.78-.26.1-1.79.97-4.6,2.62-.03-.61.34-1.34,1.11-2.18.68-.71,1.35-1.22,2.03-1.55-.68-.16-1.37-.31-2.08-.43-1.03-.29-1.55-.74-1.55-1.35,0-1.71.71-3.32,2.13-4.82s3.02-2.25,4.79-2.25c.58,0,1.13.18,1.64.53.52.35.77.82.77,1.4,0,.22-.5,1.04-1.5,2.46-.42-.22-.84-.47-1.26-.72-.65-.35-1.11-.53-1.4-.53-.48,0-.98.13-1.5.39-.61.32-.92.68-.92,1.06,0,.51.82.9,2.47,1.15,1.1.1,2.19.21,3.29.34h3.22Z"></path><path class="cls-2" d="M268.08,36.23h-5.47l-1.69-17.87c0-.13.18-.4.53-.82.58-.74,1.32-1.56,2.23-2.46.1.78.21,1.92.34,3.44.58,6.3,1.05,10.66,1.4,13.09.03.16.18.27.44.34.13.03.36.12.68.27.32.15.56.22.73.22h.82v3.81-.02Z"></path><path class="cls-2" d="M325.84,16.42c-.26,1.35-.61,2.62-1.07,3.8-1.26.45-4.05,1.37-8.37,2.75,1.35,1.19,2.71,2.37,4.06,3.53,1.68,1.49,3.01,2.9,4.01,4.26.22.32.34.63.34.92l-1.11,4.55h-56.57v-3.81h54.53l-5.42-4.63c-.03.06-.12.18-.27.34s-.23.27-.27.34c-.29-.26-.73-.69-1.31-1.3-1.19-1.28-1.79-2.03-1.79-2.22,0-.06.45-1.7,1.36-4.91l11.85-3.61h.03Z"></path><path class="cls-2" d="M345.05,36.23h-2.95c-.23-.59-.58-1.47-1.06-2.65-.35.1-.66.46-.92,1.08-.35.79-.66,1.31-.92,1.57h-8.81c-.26,0-.47-.29-.63-.87,0-.97.16-2.28.48-3.93.23-1.03.6-1.89,1.11-2.57.03.03.1.12.19.25-.1,1.39-.08,2.29.05,2.7.13.41.34.61.63.61h8.23c.1-.2.15-.36.15-.49,0-.52-.24-1.67-.73-3.44-.29-.88-.56-1.77-.82-2.65l1.98-3.93c.58,2.2,1.39,5.37,2.42,9.49.16.68.5,1.02,1.02,1.02h.58v3.81h0ZM337.02,20.09c-.1.26-.43.64-1.02,1.16-.58.51-1.02.77-1.31.77-.16,0-.57-.27-1.23-.8-.66-.53-.99-.84-.99-.94,0-.16.33-.56.99-1.21.66-.64,1.07-.96,1.23-.96.23,0,1,.66,2.32,1.98h0Z"></path><path class="cls-2" d="M364.45,20.4c-.13.32-.42.74-.87,1.26-.1.1-.73.9-1.89,2.42-.06.1-.1.24-.1.44l.82,6.68-.92,4.84c-.07,0-.17.03-.31.1-.14.06-.27.1-.36.1h-16.79v-3.81h15.68c.1-.49.15-.87.15-1.17,0-.58-.15-1.67-.44-3.26-.23-1.46-.66-3.61-1.31-6.47l-1.4-1.12c.9-1.85,1.81-3.4,2.71-4.67,0,.68.11,1.19.34,1.55.13.19.81.68,2.03,1.45.87.58,1.76,1.13,2.66,1.65h0Z"></path><path class="cls-2" d="M373.25,29.03c0,2.83-.66,5.23-1.98,7.2l-1.79-14.93c0-.26.4-1.05,1.21-2.37.71-1.13,1.24-1.92,1.6-2.37l.97,12.46h0Z"></path><path class="cls-2" d="M400.59,36.23h-5.57c-.9,0-1.69-.3-2.35-.9-.66-.6-.99-1.3-.99-2.11,0-.42.08-.91.24-1.46.16-.42.31-.84.44-1.26l.1-.1c-.91.13-2.27.43-4.06.92-.46.32-1.13.8-2.01,1.42-.88.63-1.6,1.47-2.15,2.53-.46.93-.68,1.75-.68,2.46,0,2.44,1.69,4.19,5.08,5.25,2.03.61,4.29.93,6.77.96h3.14c-1.87,2.05-4.61,3.08-8.22,3.08-2.39,0-4.35-.5-5.9-1.49-1.87-1.25-2.81-3.12-2.81-5.59,0-3.5,1.77-6.95,5.32-10.36-.06-.13-.27-.22-.63-.29-.87-.16-1.6-.24-2.18-.24-.71,0-1.74.35-3.1,1.06v-.44c0-.42.24-1.08.73-1.98.39-.77.73-1.33,1.02-1.69.42-.51,1.03-.79,1.84-.82l7.02,1.21h5.18c-.35.81-.89,1.99-1.6,3.55l-1.16.19c-.36.07-.53.32-.53.78,0,.39.21.74.63,1.04.42.31.81.46,1.16.46h5.27v3.81h0ZM392.46,39.31c0,.22-.39.61-1.16,1.16s-1.21.82-1.31.82-.53-.28-1.31-.84c-.77-.56-1.16-.94-1.16-1.13s.35-.62,1.06-1.28,1.16-.99,1.35-.99.66.36,1.4,1.08,1.11,1.12,1.11,1.18h.02Z"></path><path class="cls-2" d="M458.06,31.41c0,.26-.11.6-.34,1.01-.13.22-.84,1.35-2.13,3.37l-7.35-2.65c-.52.2-.92.65-1.21,1.37-.35.85-.69,1.42-1.02,1.71h-46.93v-3.81h47.41c.16-.39.37-.93.63-1.61.32-.98.85-1.97,1.6-2.97.84-1.14,1.73-1.92,2.66-2.34,2.19-1.04,3.66-1.53,4.4-1.46.16.13.26.24.29.34.45,1.32,1.06,3.28,1.84,5.88.1.35.14.74.14,1.16h0ZM454.48,30.79c-.26-1.03-.42-1.62-.48-1.78-.29-.74-.71-1.11-1.26-1.11-.29,0-.65.08-1.06.24-.52.19-.9.38-1.16.55-.26.18-.39.3-.39.36l4.36,1.74h0Z"></path><path class="cls-2" d="M469.23,36.23h-5.47l-1.69-17.87c0-.13.18-.4.53-.82.58-.74,1.32-1.56,2.22-2.46.1.78.21,1.92.34,3.44.58,6.3,1.05,10.66,1.4,13.09.03.16.18.27.43.34.13.03.35.12.68.27.32.15.56.22.72.22h.82v3.81l.02-.02Z"></path><path class="cls-2" d="M493.81,30.28c0,1.06-.39,3.05-1.16,5.95h-23.69v-3.81h22.34c-.36-2.05-1.19-3.69-2.52-4.92l2.18-3.75c1.9,2.26,2.86,4.44,2.86,6.53h0ZM490.81,19.89c-.55.93-1.35,1.83-2.42,2.7l-3.48-1.69,2.66-2.75c1.1.67,2.18,1.25,3.24,1.74h0Z"></path><path class="cls-2" d="M512.53,36.23h-3.29c-.29,0-.63-.24-1.02-.72-.23,1.35-.98,2.97-2.27,4.87-1.61,2.41-3.21,3.61-4.79,3.61-.87,0-2.27-.43-4.18-1.28-1.92-.85-3.09-1.52-3.51-2v-.34c.06-.1.18-.15.34-.15.06,0,.57.19,1.52.58.95.39,1.68.58,2.2.58,1.29,0,3.03-.9,5.22-2.7s3.29-3.18,3.29-4.14c0-.68-.81-1.91-2.42-3.71l2.08-3.42c2,2.57,3.92,4.21,5.76,4.92h1.07s0,3.9,0,3.9Z"></path><path class="cls-2" d="M529.24,30.47c0,.74-.23,2.66-.68,5.76h-16.6v-3.81c6.13-.03,15.15-.03,15.15,0-.42-1.33-1.23-2.88-2.42-4.64l1.98-3.27c1.71,2.07,2.56,4.05,2.56,5.96h.01ZM526.44,42.64c0,.29-.34.68-1.01,1.16-.68.48-1.08.72-1.21.72-.29,0-1.23-.63-2.81-1.88.06-.23.41-.68,1.04-1.37s1.06-1.04,1.28-1.04c.1,0,.57.37,1.43,1.11s1.28,1.17,1.28,1.3Z"></path></g><g><path class="cls-2" d="M24.97,58.19h-5.03c-.45,0-.67-.2-.47-.84.31-.83.64-1.31.92-1.61.45.11,1.2.14,4.03.14h9.95c-.11,1.48-.87,2.17-1.45,2.31h-4.45v11.64c0,1.92.06,2.84.08,3.4-.78.14-1.87.22-2.99.22-.39,0-.59-.08-.59-.5,0,0,0-14.76,0-14.76Z"></path><path class="cls-2" d="M48.11,63.06v-6.4c0-.61.22-.72.67-.78.67-.05,2.04-.08,2.91-.11-.06,1.06-.08,2.73-.08,5.04v8.99c0,1.95.06,2.87.08,3.42-.56.14-2.35.22-2.99.22-.39,0-.59-.08-.59-.53v-7.63c-.56.06-1.48.08-3.19.08h-4.28v7.21c0,.58-.22.7-.87.75-.76.08-2.13.14-2.71.11.06-1.11.08-2.76.08-5.09v-8.8c0-1.89-.03-3.03-.08-3.56.73-.14,2.4-.22,2.99-.22.5,0,.59.25.59,1.5v5.79h7.47Z"></path><path class="cls-2" d="M56.47,59.78c0-1.34,0-2.34-.08-3.51.78-.19,2.01-.36,3.16-.39h6.79c-.17,1.25-.5,1.78-.84,2.14-.42.17-1.37.17-2.63.17h-2.91v4.98h6.09c-.25,1.95-.87,2.31-1.85,2.31h-4.25v5.46c.64.14,1.54.2,2.6.2,1.15,0,3.19,0,4.53-.11l.06.06c-.25,1.2-.78,1.84-1.48,2.23-.39.08-1.65.14-3.8.14-2.46,0-4.3-.14-4.98-.28l-.42-.53v-12.86h.01Z"></path><path class="cls-2" d="M80.37,68.49c-.64,1.61-1.45,3.67-1.82,4.57-.11.25-.33.39-.78.39-.62,0-1.84-.17-2.46-.36v-.11c1.45-3.4,5.81-13.75,6.88-16.29l-.22-.59c1.03-.22,2.6-.33,2.94-.33.25,0,.5.17.64.5,1.29,3.06,3.41,8.55,4.39,10.97,1.15,2.84,1.82,4.59,2.38,5.76v.11c-.62.2-2.52.34-3.13.34-.45,0-.67-.14-.95-.89-.5-1.42-.89-2.48-1.54-4.07h-6.33ZM86.02,66.18c-1.29-3.45-2.12-5.54-2.43-6.43-.7,1.84-1.48,4.04-2.43,6.43h4.86Z"></path><path class="cls-2" d="M98.71,72.61c0,.56-.17.67-.64.72-.78.08-2.32.11-2.88.11.06-1.11.08-2.76.08-5.09v-9.33c0-1.39,0-2.06-.06-2.84.73-.17,3.52-.47,4.81-.47,4.44,0,6.65,1.5,6.65,5.04,0,2.65-2.24,3.93-3.35,4.43.64.56,1.51,1.95,2.46,3.59,1.34,2.34,2.24,3.59,2.94,4.34v.11c-.22.17-1.26.28-2.26.28s-1.76-.28-2.49-1.25c-.75-.97-1.31-2.09-2.43-4.26-.87-1.59-1.4-1.81-2.32-1.81h-.5v6.43h-.01ZM98.71,64.18c.75.08,2.29,0,2.68-.2.59-.22,1.71-1.06,1.71-2.92,0-2.31-1.45-3.28-3.19-3.28-.39,0-.87.03-1.2.08v6.32Z"></path><path class="cls-2" d="M114.84,58.19h-5.03c-.45,0-.67-.2-.48-.84.31-.83.64-1.31.92-1.61.45.11,1.2.14,4.03.14h9.95c-.11,1.48-.87,2.17-1.45,2.31h-4.44v11.64c0,1.92.06,2.84.08,3.4-.78.14-1.87.22-2.99.22-.39,0-.59-.08-.59-.5v-14.76Z"></path><path class="cls-2" d="M127.03,59.53c0-1.87-.03-3.01-.08-3.54.5-.08,2.43-.22,3.02-.22.48,0,.56.25.56,1.5v12.53c0,1.95.06,2.87.08,3.42-.47.14-2.35.22-2.99.22-.42,0-.59-.08-.59-.56v-13.36h0Z"></path><path class="cls-2" d="M135.38,59.25c0-1.22-.03-1.98-.08-2.95.5-.14,2.15-.36,3.38-.42,1.01-.03,5.76,0,7.1,0-.22,1.25-.62,1.78-.98,2.14-.36.17-.95.17-2.18.17h-3.75v5.54h6.32c-.28,2.12-.95,2.31-2.04,2.31h-4.28c0,2.78.03,5.1.08,7.18-.48.14-1.87.22-2.96.22-.42,0-.61-.08-.61-.53v-13.67h0Z"></path><path class="cls-2" d="M148.8,59.53c0-1.87-.03-3.01-.08-3.54.5-.08,2.43-.22,3.02-.22.47,0,.56.25.56,1.5v12.53c0,1.95.06,2.87.08,3.42-.47.14-2.35.22-2.99.22-.42,0-.59-.08-.59-.56v-13.36h0Z"></path><path class="cls-2" d="M170.91,70.55c-.08.95-.45,1.75-.92,2.2-.7.45-2.18.95-4.05.95-6.37,0-9.81-3.62-9.81-8.94,0-5.76,4.39-9.3,9.92-9.3,2.66,0,4.7.89,5.14,1.39.06.95-.59,1.89-1.48,1.75-.84-.36-2.15-.75-3.69-.75-3.38,0-6.15,2.2-6.15,6.65,0,3.79,2.43,6.68,6.88,6.68,1.87,0,3.35-.47,4.08-.7l.08.06h0Z"></path><path class="cls-2" d="M174.3,59.53c0-1.87-.03-3.01-.08-3.54.5-.08,2.43-.22,3.02-.22.47,0,.56.25.56,1.5v12.53c0,1.95.06,2.87.08,3.42-.48.14-2.35.22-2.99.22-.42,0-.59-.08-.59-.56v-13.36h0Z"></path><path class="cls-2" d="M185.87,68.49c-.64,1.61-1.45,3.67-1.82,4.57-.11.25-.33.39-.78.39-.62,0-1.85-.17-2.46-.36v-.11c1.45-3.4,5.81-13.75,6.88-16.29l-.22-.59c1.03-.22,2.6-.33,2.93-.33.25,0,.5.17.64.5,1.29,3.06,3.41,8.55,4.39,10.97,1.15,2.84,1.82,4.59,2.38,5.76v.11c-.62.2-2.52.34-3.13.34-.45,0-.67-.14-.95-.89-.5-1.42-.9-2.48-1.54-4.07h-6.32,0ZM191.52,66.18c-1.29-3.45-2.12-5.54-2.43-6.43-.7,1.84-1.48,4.04-2.43,6.43h4.86,0Z"></path><path class="cls-2" d="M200.8,59.58c0-1.87-.03-3.01-.08-3.59.62-.08,1.96-.22,3.02-.22.47,0,.56.25.56,1.64v13.53c.53.14,1.48.2,2.52.2,1.15,0,2.85,0,4.22-.14l.03.06c-.17,1.09-.73,1.87-1.43,2.26-.39.08-1.37.14-3.52.14-2.32,0-4.19-.14-4.89-.28l-.42-.53v-13.06h-.01Z"></path><path class="cls-2" d="M220.56,59.53c0-1.87-.03-3.01-.08-3.54.5-.08,2.43-.22,3.02-.22.47,0,.56.25.56,1.5v12.53c0,1.95.06,2.87.08,3.42-.48.14-2.35.22-2.99.22-.42,0-.59-.08-.59-.56v-13.36h0Z"></path><path class="cls-2" d="M228.44,56.13v-.14c.53-.08,2.94-.22,3.44-.22.28,0,.5.19.78.5.89,1.28,3.19,4.76,5.2,7.85,1.26,1.98,2.29,3.54,2.96,4.96-.17-2.14-.14-3.23-.14-4.62v-7.77c0-.64.2-.75.59-.81.87-.08,1.62-.11,2.26-.11-.06,1.2-.08,2.81-.08,5.12v12.28c-.25.11-1.84.45-2.66.45-.34,0-.5-.11-.7-.39-1.45-2-2.88-4.18-5.09-7.57-1.48-2.34-2.29-3.9-3.44-6.04.17,2.81.14,4.26.14,5.68v7.3c0,.58-.17.67-.61.75-.5.08-1.4.14-2.24.11.06-1.11.08-2.73.08-5.07v-11.56l-.5-.7h.01Z"></path><path class="cls-2" d="M252.01,58.19h-5.03c-.45,0-.67-.2-.48-.84.31-.83.64-1.31.92-1.61.45.11,1.2.14,4.03.14h9.95c-.11,1.48-.87,2.17-1.45,2.31h-4.44v11.64c0,1.92.06,2.84.08,3.4-.78.14-1.87.22-2.99.22-.39,0-.59-.08-.59-.5v-14.76h0Z"></path><path class="cls-2" d="M264.2,59.78c0-1.34,0-2.34-.08-3.51.78-.19,2.01-.36,3.16-.39h6.79c-.17,1.25-.5,1.78-.84,2.14-.42.17-1.37.17-2.63.17h-2.91v4.98h6.09c-.25,1.95-.87,2.31-1.84,2.31h-4.25v5.46c.64.14,1.54.2,2.6.2,1.15,0,3.19,0,4.53-.11l.06.06c-.25,1.2-.78,1.84-1.48,2.23-.39.08-1.65.14-3.8.14-2.46,0-4.31-.14-4.98-.28l-.42-.53v-12.86h0Z"></path><path class="cls-2" d="M278.03,59.58c0-1.87-.03-3.01-.08-3.59.61-.08,1.96-.22,3.02-.22.47,0,.56.25.56,1.64v13.53c.53.14,1.48.2,2.52.2,1.15,0,2.85,0,4.22-.14l.03.06c-.17,1.09-.73,1.87-1.43,2.26-.39.08-1.37.14-3.52.14-2.32,0-4.19-.14-4.89-.28l-.42-.53v-13.06h0Z"></path><path class="cls-2" d="M291.12,59.58c0-1.87-.03-3.01-.08-3.59.62-.08,1.96-.22,3.02-.22.47,0,.56.25.56,1.64v13.53c.53.14,1.48.2,2.52.2,1.15,0,2.85,0,4.22-.14l.03.06c-.17,1.09-.73,1.87-1.43,2.26-.39.08-1.37.14-3.52.14-2.32,0-4.19-.14-4.89-.28l-.42-.53v-13.06h0Z"></path><path class="cls-2" d="M304.2,59.53c0-1.87-.03-3.01-.08-3.54.5-.08,2.43-.22,3.02-.22.47,0,.56.25.56,1.5v12.53c0,1.95.06,2.87.08,3.42-.48.14-2.35.22-2.99.22-.42,0-.59-.08-.59-.56v-13.36h0Z"></path><path class="cls-2" d="M323.74,67.57c0-1.17-.06-1.81-.11-2.48.89-.14,2.24-.42,3.02-.42.42,0,.59.17.59.75v6.29c-.53.45-1.45,1.03-2.21,1.39-.98.28-2.49.59-3.83.59-4.7,0-9.67-2.06-9.67-8.99,0-5.74,4.45-9.24,9.92-9.24,3.05,0,5.12.97,5.79,1.61.03,1.09-.78,1.92-1.68,1.75-1.26-.61-2.71-.92-4.19-.92-3.44,0-6.09,2.23-6.09,6.57,0,4.84,3.24,7.04,6.51,7.04.78,0,1.62-.17,1.96-.31v-3.65.02Z"></path><path class="cls-2" d="M331.45,59.78c0-1.34,0-2.34-.08-3.51.78-.19,2.01-.36,3.16-.39h6.79c-.17,1.25-.5,1.78-.84,2.14-.42.17-1.37.17-2.63.17h-2.91v4.98h6.09c-.25,1.95-.87,2.31-1.84,2.31h-4.25v5.46c.64.14,1.54.2,2.6.2,1.15,0,3.19,0,4.53-.11l.06.06c-.25,1.2-.78,1.84-1.48,2.23-.39.08-1.65.14-3.8.14-2.46,0-4.31-.14-4.98-.28l-.42-.53v-12.86h0Z"></path><path class="cls-2" d="M344.81,56.13v-.14c.53-.08,2.94-.22,3.44-.22.28,0,.5.19.78.5.89,1.28,3.19,4.76,5.2,7.85,1.26,1.98,2.29,3.54,2.96,4.96-.17-2.14-.14-3.23-.14-4.62v-7.77c0-.64.2-.75.59-.81.87-.08,1.62-.11,2.26-.11-.06,1.2-.08,2.81-.08,5.12v12.28c-.25.11-1.85.45-2.66.45-.34,0-.5-.11-.7-.39-1.45-2-2.88-4.18-5.09-7.57-1.48-2.34-2.29-3.9-3.44-6.04.17,2.81.14,4.26.14,5.68v7.3c0,.58-.17.67-.62.75-.5.08-1.4.14-2.24.11.06-1.11.08-2.73.08-5.07v-11.56l-.5-.7h.02Z"></path><path class="cls-2" d="M378.5,70.55c-.08.95-.45,1.75-.92,2.2-.7.45-2.18.95-4.05.95-6.37,0-9.81-3.62-9.81-8.94,0-5.76,4.39-9.3,9.92-9.3,2.66,0,4.7.89,5.14,1.39.06.95-.59,1.89-1.48,1.75-.84-.36-2.15-.75-3.69-.75-3.38,0-6.15,2.2-6.15,6.65,0,3.79,2.43,6.68,6.88,6.68,1.87,0,3.35-.47,4.08-.7l.08.06h0Z"></path><path class="cls-2" d="M381.88,59.78c0-1.34,0-2.34-.08-3.51.78-.19,2.01-.36,3.16-.39h6.79c-.17,1.25-.5,1.78-.84,2.14-.42.17-1.37.17-2.63.17h-2.91v4.98h6.09c-.25,1.95-.87,2.31-1.84,2.31h-4.25v5.46c.64.14,1.54.2,2.6.2,1.15,0,3.19,0,4.53-.11l.06.06c-.25,1.2-.78,1.84-1.48,2.23-.39.08-1.65.14-3.8.14-2.46,0-4.31-.14-4.98-.28l-.42-.53v-12.86h0Z"></path><path class="cls-2" d="M402.34,59.81c0-1.33,0-2.48-.11-3.76.75-.11,2.66-.33,4.58-.33,4.25,0,7.21,1.45,7.21,5.65s-3.47,5.54-5.31,5.57c-.45,0-1.12-.06-1.42-.22-.42-.22-.92-1-.92-1.89.22.05.62.08.89.08,1.4,0,3.13-.72,3.13-3.54,0-2.65-1.79-3.48-3.44-3.48-.33,0-.73.03-1.12.08v11.94c0,1.95.06,2.76.08,3.31-.47.14-2.21.22-2.96.22-.42,0-.61-.08-.61-.5v-13.14h0Z"></path><path class="cls-2" d="M420.71,72.61c0,.56-.17.67-.64.72-.78.08-2.32.11-2.88.11.05-1.11.08-2.76.08-5.09v-9.33c0-1.39,0-2.06-.06-2.84.73-.17,3.52-.47,4.81-.47,4.44,0,6.65,1.5,6.65,5.04,0,2.65-2.24,3.93-3.35,4.43.64.56,1.51,1.95,2.46,3.59,1.34,2.34,2.24,3.59,2.94,4.34v.11c-.22.17-1.26.28-2.27.28s-1.76-.28-2.49-1.25c-.75-.97-1.31-2.09-2.43-4.26-.87-1.59-1.4-1.81-2.32-1.81h-.5v6.43h0ZM420.71,64.18c.76.08,2.29,0,2.68-.2.59-.22,1.71-1.06,1.71-2.92,0-2.31-1.45-3.28-3.19-3.28-.39,0-.87.03-1.2.08v6.32h0Z"></path><path class="cls-2" d="M441.37,55.46c5.65,0,8.92,4.06,8.92,8.96s-3.1,9.27-9.03,9.27c-6.46,0-9-4.76-9-8.96,0-5.26,3.38-9.27,9.08-9.27,0,0,.03,0,.03,0ZM441.03,57.63c-2.74,0-5,2.2-5,6.77s2.54,7.13,5.48,7.13c3.13,0,5.06-2.51,5.06-6.85,0-3.95-2.04-7.04-5.51-7.04h-.03Z"></path><path class="cls-2" d="M465.58,67.57c0-1.17-.06-1.81-.11-2.48.89-.14,2.24-.42,3.02-.42.42,0,.59.17.59.75v6.29c-.53.45-1.45,1.03-2.21,1.39-.98.28-2.49.59-3.83.59-4.7,0-9.67-2.06-9.67-8.99,0-5.74,4.45-9.24,9.92-9.24,3.05,0,5.12.97,5.79,1.61.03,1.09-.78,1.92-1.68,1.75-1.26-.61-2.71-.92-4.19-.92-3.44,0-6.09,2.23-6.09,6.57,0,4.84,3.24,7.04,6.51,7.04.78,0,1.62-.17,1.96-.31v-3.65.02Z"></path><path class="cls-2" d="M476.7,72.61c0,.56-.17.67-.64.72-.78.08-2.32.11-2.88.11.06-1.11.08-2.76.08-5.09v-9.33c0-1.39,0-2.06-.06-2.84.73-.17,3.52-.47,4.81-.47,4.45,0,6.65,1.5,6.65,5.04,0,2.65-2.24,3.93-3.35,4.43.64.56,1.51,1.95,2.46,3.59,1.34,2.34,2.24,3.59,2.94,4.34v.11c-.22.17-1.26.28-2.27.28s-1.76-.28-2.49-1.25c-.76-.97-1.31-2.09-2.43-4.26-.87-1.59-1.4-1.81-2.32-1.81h-.5v6.43h0ZM476.7,64.18c.75.08,2.29,0,2.68-.2.59-.22,1.71-1.06,1.71-2.92,0-2.31-1.45-3.28-3.19-3.28-.39,0-.87.03-1.2.08v6.32h0Z"></path><path class="cls-2" d="M493.67,68.49c-.64,1.61-1.45,3.67-1.82,4.57-.11.25-.33.39-.78.39-.62,0-1.85-.17-2.46-.36v-.11c1.45-3.4,5.81-13.75,6.88-16.29l-.22-.59c1.03-.22,2.6-.33,2.93-.33.25,0,.5.17.64.5,1.28,3.06,3.41,8.55,4.39,10.97,1.15,2.84,1.82,4.59,2.38,5.76v.11c-.61.2-2.52.34-3.13.34-.45,0-.67-.14-.95-.89-.5-1.42-.89-2.48-1.54-4.07,0,0-6.32,0-6.32,0ZM499.32,66.18c-1.29-3.45-2.12-5.54-2.43-6.43-.7,1.84-1.48,4.04-2.43,6.43h4.86Z"></path><path class="cls-2" d="M523.38,56.16c.42-.22,2.29-.39,2.96-.39.28,0,.45.17.53.86l1.48,10.25c.45,2.92.75,4.98,1.01,6.32-.47.14-2.24.25-2.79.25-.36,0-.73-.14-.78-.7-.17-1.42-.34-2.92-.64-5.87l-.81-6.99c-.78,2.42-2.43,7.04-4.22,12.28-.2.56-.39.78-1.01.92-.5.08-1.17.2-1.73.2-.67-2.17-3.13-9.55-4.39-13.34-.39,3.42-1.23,9.8-1.65,13.06-.06.31-.2.45-.5.45-.75,0-2.04,0-2.49-.25.5-2.95,1.62-10.16,2.71-16.51l-.08-.53c.7-.14,1.71-.39,3.05-.39.42.11.64.5,1.15,1.92l3.77,10.38c1.4-3.65,3.27-8.66,4.45-11.5v-.42h-.02Z"></path></g></g><g><g><path class="cls-3" d="M605,36.23h-.92c-.52.99-1.05,1.98-1.6,2.97-.74,1.21-1.48,2.1-2.23,2.68-.23.06-.53.19-.92.38-1.1.51-2.61.97-4.55,1.39-1,.22-2.02.34-3.05.34-1.65,0-3.11-.32-4.4-.97-1.74-.9-2.61-2.22-2.61-3.95s.71-3.58,2.13-5.73c1.32-2.05,2.52-3.28,3.58-3.66.13.35.03.71-.3,1.06-2.06,2.15-3.09,3.95-3.09,5.4s.87,2.65,2.62,3.42c1.26.58,2.61.87,4.03.87.71,0,1.72-.1,3.01-.29.87-.16,1.73-.37,2.57-.62.32-.09.79-.21,1.41-.33l.15-.19c-.81-1.21-1.9-1.95-3.29-2.24-1.13-.06-2.27-.14-3.43-.24l2.32-4.09h8.56v3.81h0ZM596.48,47.36c-1.13,1.16-1.76,1.73-1.89,1.73-.29,0-1.08-.5-2.37-1.49-1.26.99-1.86,1.49-1.79,1.49-.13,0-1-.53-2.61-1.59,1.16-1.22,1.79-1.83,1.89-1.83s.51.24,1.23.72c.73.48,1.12.72,1.19.72.1,0,.4-.24.9-.72s.78-.72.85-.72c.03,0,.9.56,2.61,1.69h-.01Z"></path><path class="cls-3" d="M645.39,32.09l-2.32,4.14h-38.76v-3.81h25.99c0-.49.03-1.22.1-2.19.1-.46.4-1.03.92-1.71,1.87-2.44,3.64-3.98,5.32-4.63.39-.16.74-.24,1.06-.24.48,0,.93.09,1.35.26.42.18.73.33.92.46.84.58,1.47,1.17,1.89,1.78.97,1.38,1.43,2.27,1.4,2.65v.82c-1.13-1.12-2.44-1.78-3.92-1.98-.64-.1-1.29-.14-1.93-.14-.9,0-1.66.07-2.27.2-.9.2-1.58.51-2.03.93.87,1.54,2.13,2.77,3.77,3.69.13.07.42.1.87.1.1,0,.69-.06,1.79-.17,1.1-.11,1.69-.17,1.79-.17h4.06Z"></path><path class="cls-3" d="M656.13,36.23h-5.47l-1.69-17.87c0-.13.18-.4.53-.82.58-.74,1.32-1.56,2.23-2.46.1.78.21,1.92.34,3.44.58,6.3,1.05,10.66,1.4,13.09.03.16.18.27.44.34.13.03.35.12.68.27.32.15.56.22.73.22h.82v3.81-.02Z"></path><path class="cls-3" d="M712.15,36.23h-2.76c-.06,0-.26-.07-.58-.2-.55-.23-1.06-.95-1.55-2.16l-1.26,2.36h-50.81v-3.81h51.54c.23-.36.32-.9.29-1.62-.03-.72.02-1.21.15-1.47.23-.59,1.08-1.61,2.56-3.08v2.5c0,.1-.05.45-.15,1.05-.1.61-.15.94-.15,1,0,1.08.64,1.62,1.94,1.62h.77v3.81h.01ZM709.15,20.86c0,.16-.1.34-.29.53-.32.32-1.02.84-2.08,1.54-.32.1-.45.14-.39.14-.16,0-.63-.27-1.4-.82-.9-.64-1.35-1.11-1.35-1.4,0-.16.11-.35.34-.58.74-.77,1.37-1.35,1.89-1.74.23-.16.4-.24.53-.24s.62.39,1.48,1.18,1.28,1.25,1.28,1.37v.02Z"></path><path class="cls-3" d="M737.7,36.23h-26.9v-3.81h5.52c.35,0,.68-.24.97-.73.29-.49.44-.89.44-1.21-.39-2.91-.66-5.09-.82-6.54-.26-1.68-.58-3.1-.97-4.26,0-.03-.13-.19-.39-.48-.26-.29-.39-.56-.39-.82,0-.19.11-.5.34-.92.23-.42.87-1.32,1.94-2.71.06,0,.15.02.24.05.03.29.19.66.48,1.11.39.61,1.03,1.19,1.93,1.73.68.39,1.37.77,2.08,1.16-.35.71-.69,1.41-1.02,2.12-.48.87-1.11,1.32-1.89,1.35.42,1.73.63,3.21.63,4.43,0,.1-.1.63-.29,1.59-.23,1.09-.37,1.88-.44,2.36.84-.55,2.06-1.33,3.68-2.36.77-.45,2.11-1.13,4.02-2.03,1.35-.64,2.43-1.06,3.24-1.25.39-.1.65-.14.77-.14.22,0,.69.15,1.4.44.84.36,1.69.99,2.56,1.91,1.06,1.07,1.61,2.03,1.64,2.88l-.87,2.34h2.08v3.81l.02-.02ZM732.42,31.79v-.49c-.84-1.47-1.86-2.33-3.05-2.59-.13-.03-.44-.05-.92-.05-.55,0-1.29.12-2.23.34-.55.16-1.4.59-2.56,1.27-.94.59-1.89,1.16-2.85,1.71h11.13c.1,0,.19-.03.29-.1s.16-.1.19-.1h0Z"></path><path class="cls-3" d="M750.37,31.99s-.08.07-.15.22c-.06.14-.13.22-.19.22v3.81h-2.81c-.29,0-.59-.16-.9-.47-.31-.32-.49-.62-.56-.92-.81.93-1.4,1.4-1.79,1.4h-7.44v-3.81l8.8-.1c.35,0,.6-.42.73-1.25.03-.45.06-.9.1-1.35.58-.8,1.63-1.94,3.14-3.42.03.55-.11,1.35-.44,2.41-.58,1.77-.87,2.7-.87,2.8.55.55,1.06.82,1.55.82.1,0,.23-.06.41-.17s.31-.17.41-.17v-.02Z"></path><path class="cls-3" d="M769,29.65c0,.06-.31.86-.92,2.37-.52,1.26-1.13,2.44-1.84,3.53-.29.45-.55.68-.77.68h-17.08v-3.95h1.93c1.93-1.02,3.36-1.8,4.26-2.35,1.16-.8,2.92-1.95,5.27-3.45,1-.64,1.94-1.12,2.81-1.44.23-.1.5-.14.82-.14.39,0,.77.08,1.16.24,1.68.71,2.97,1.76,3.87,3.15.32.58.48,1.03.48,1.36h.01ZM765.32,31.35c0-.46-.26-.85-.77-1.17-1-.65-1.86-1.08-2.56-1.27-.07-.03-.24-.05-.53-.05-.55,0-.98.08-1.31.24-1.45.82-3.34,1.87-5.66,3.18h9.63c.32,0,.68-.18,1.06-.54.1-.2.15-.33.15-.39h-.01Z"></path><path class="cls-3" d="M791.69,18.98c0,.22-.71,1.35-2.13,3.37-.03.03-.13.05-.29.05-.26,0-.53-.11-.82-.34-.23,1.36-.52,2.55-.87,3.58-.13.36-.42.9-.87,1.64s-.68,1.15-.68,1.21.11.29.34.68c.68,1.19,1.02,2.48,1.02,3.87,0,1-.1,2.06-.29,3.19h-10.3c-.48-.26-.73-1.07-.73-2.43,0-1.2.18-2.24.53-3.11.16.23.39.54.68.92s.69.57,1.21.57c.77,0,2.32-1.05,4.64-3.15-.23-.55-.82-1.32-1.79-2.33-.97-1-1.77-1.7-2.42-2.09-.13.26-.32.64-.58,1.16-.13-.1-1.66-.98-4.6-2.65-.45-.26-.68-.9-.68-1.93,0-.26.16-1.04.48-2.36h2.9c.1-.19.13-.55.1-1.06,1.39.84,2.92,2.14,4.6,3.9,1.68,1.77,2.9,3.36,3.68,4.77.68-1.12,1.02-2.6,1.02-4.43,0-.96-.32-1.83-.97-2.6l2.9-4.48c0,.32.11.79.34,1.4.1.16.53.53,1.31,1.11,1.51.8,2.27,1.32,2.27,1.54h0ZM785.06,32.37c-.32-.71-.69-1.43-1.11-2.17-.9,1.03-1.66,1.75-2.27,2.17,1.19.13,2.32.13,3.39,0h-.01Z"></path><path class="cls-3" d="M799.62,29.03c0,2.83-.66,5.23-1.98,7.2l-1.79-14.93c0-.26.4-1.05,1.21-2.37.71-1.13,1.24-1.92,1.6-2.37l.97,12.46h-.01Z"></path><path class="cls-3" d="M820.67,29.72c-.39.88-1.03,1.85-1.94,2.91-.35.03-.87.1-1.55.19-1.19.13-2.24.39-3.15.78-.26.1-1.79.97-4.6,2.62-.03-.61.34-1.34,1.11-2.18.68-.71,1.35-1.22,2.03-1.55-.68-.16-1.37-.31-2.08-.43-1.03-.29-1.55-.74-1.55-1.35,0-1.71.71-3.32,2.13-4.82s3.02-2.25,4.79-2.25c.58,0,1.13.18,1.64.53.52.35.77.82.77,1.4,0,.22-.5,1.04-1.5,2.46-.42-.22-.84-.47-1.26-.72-.65-.35-1.11-.53-1.4-.53-.48,0-.98.13-1.5.39-.61.32-.92.68-.92,1.06,0,.51.82.9,2.47,1.15,1.1.1,2.19.21,3.29.34h3.22Z"></path><path class="cls-3" d="M831.17,36.23h-5.47l-1.69-17.87c0-.13.18-.4.53-.82.58-.74,1.32-1.56,2.23-2.46.1.78.21,1.92.34,3.44.58,6.3,1.05,10.66,1.4,13.09.03.16.18.27.44.34.13.03.36.12.68.27.32.15.56.22.73.22h.82v3.81-.02Z"></path><path class="cls-3" d="M888.93,16.42c-.26,1.35-.61,2.62-1.07,3.8-1.26.45-4.05,1.37-8.37,2.75,1.35,1.19,2.71,2.37,4.06,3.53,1.68,1.49,3.01,2.9,4.01,4.26.22.32.34.63.34.92l-1.11,4.55h-56.57v-3.81h54.53l-5.42-4.63c-.03.06-.12.18-.27.34s-.23.27-.27.34c-.29-.26-.73-.69-1.31-1.3-1.19-1.28-1.79-2.03-1.79-2.22,0-.06.45-1.7,1.36-4.91l11.85-3.61h.03Z"></path><path class="cls-3" d="M908.13,36.23h-2.95c-.23-.59-.58-1.47-1.06-2.65-.35.1-.66.46-.92,1.08-.35.79-.66,1.31-.92,1.57h-8.81c-.26,0-.47-.29-.63-.87,0-.97.16-2.28.48-3.93.23-1.03.6-1.89,1.11-2.57.03.03.1.12.19.25-.1,1.39-.08,2.29.05,2.7s.34.61.63.61h8.23c.1-.2.15-.36.15-.49,0-.52-.24-1.67-.73-3.44-.29-.88-.56-1.77-.82-2.65l1.98-3.93c.58,2.2,1.39,5.37,2.42,9.49.16.68.5,1.02,1.02,1.02h.58s0,3.81,0,3.81ZM900.1,20.09c-.1.26-.43.64-1.02,1.16-.58.51-1.02.77-1.31.77-.16,0-.57-.27-1.23-.8-.66-.53-.99-.84-.99-.94,0-.16.33-.56.99-1.21.66-.64,1.07-.96,1.23-.96.23,0,1,.66,2.32,1.98h.01Z"></path><path class="cls-3" d="M927.53,20.4c-.13.32-.42.74-.87,1.26-.1.1-.73.9-1.89,2.42-.06.1-.1.24-.1.44l.82,6.68-.92,4.84c-.07,0-.17.03-.31.1-.14.06-.27.1-.36.1h-16.79v-3.81h15.68c.1-.49.15-.87.15-1.17,0-.58-.15-1.67-.44-3.26-.23-1.46-.66-3.61-1.31-6.47l-1.4-1.12c.9-1.85,1.81-3.4,2.71-4.67,0,.68.11,1.19.34,1.55.13.19.81.68,2.03,1.45.87.58,1.76,1.13,2.66,1.65h0Z"></path><path class="cls-3" d="M936.34,29.03c0,2.83-.66,5.23-1.98,7.2l-1.79-14.93c0-.26.4-1.05,1.21-2.37.71-1.13,1.24-1.92,1.6-2.37l.97,12.46h-.01Z"></path><path class="cls-3" d="M963.67,36.23h-5.57c-.9,0-1.69-.3-2.35-.9-.66-.6-.99-1.3-.99-2.11,0-.42.08-.91.24-1.46.16-.42.31-.84.44-1.26l.1-.1c-.91.13-2.27.43-4.06.92-.46.32-1.13.8-2.01,1.42-.88.63-1.6,1.47-2.15,2.53-.46.93-.68,1.75-.68,2.46,0,2.44,1.69,4.19,5.08,5.25,2.03.61,4.29.93,6.77.96h3.14c-1.87,2.05-4.61,3.08-8.22,3.08-2.39,0-4.35-.5-5.9-1.49-1.87-1.25-2.81-3.12-2.81-5.59,0-3.5,1.77-6.95,5.32-10.36-.06-.13-.27-.22-.63-.29-.87-.16-1.6-.24-2.18-.24-.71,0-1.74.35-3.1,1.06v-.44c0-.42.24-1.08.73-1.98.39-.77.73-1.33,1.02-1.69.42-.51,1.03-.79,1.84-.82l7.02,1.21h5.18c-.35.81-.89,1.99-1.6,3.55l-1.16.19c-.36.07-.53.32-.53.78,0,.39.21.74.63,1.04.42.31.81.46,1.16.46h5.27v3.81h0ZM955.55,39.31c0,.22-.39.61-1.16,1.16-.77.55-1.21.82-1.31.82s-.53-.28-1.31-.84c-.77-.56-1.16-.94-1.16-1.13s.35-.62,1.06-1.28,1.16-.99,1.35-.99.66.36,1.4,1.08c.74.72,1.11,1.12,1.11,1.18h.02Z"></path><path class="cls-3" d="M1021.14,31.41c0,.26-.11.6-.34,1.01-.13.22-.84,1.35-2.13,3.37l-7.35-2.65c-.52.2-.92.65-1.21,1.37-.35.85-.69,1.42-1.02,1.71h-46.93v-3.81h47.41c.16-.39.37-.93.63-1.61.32-.98.85-1.97,1.6-2.97.84-1.14,1.73-1.92,2.66-2.34,2.19-1.04,3.66-1.53,4.4-1.46.16.13.26.24.29.34.45,1.32,1.06,3.28,1.84,5.88.1.35.14.74.14,1.16h.01ZM1017.56,30.79c-.26-1.03-.42-1.62-.48-1.78-.29-.74-.71-1.11-1.26-1.11-.29,0-.65.08-1.06.24-.52.19-.9.38-1.16.55-.26.18-.39.3-.39.36l4.36,1.74h-.01Z"></path><path class="cls-3" d="M1032.32,36.23h-5.47l-1.69-17.87c0-.13.18-.4.53-.82.58-.74,1.32-1.56,2.22-2.46.1.78.21,1.92.34,3.44.58,6.3,1.05,10.66,1.4,13.09.03.16.18.27.43.34.13.03.35.12.68.27.32.15.56.22.72.22h.82v3.81l.02-.02Z"></path><path class="cls-3" d="M1056.89,30.28c0,1.06-.39,3.05-1.16,5.95h-23.69v-3.81h22.34c-.36-2.05-1.19-3.69-2.52-4.92l2.18-3.75c1.9,2.26,2.86,4.44,2.86,6.53h-.01ZM1053.89,19.89c-.55.93-1.35,1.83-2.42,2.7l-3.48-1.69,2.66-2.75c1.1.67,2.18,1.25,3.24,1.74Z"></path><path class="cls-3" d="M1075.62,36.23h-3.29c-.29,0-.63-.24-1.02-.72-.23,1.35-.98,2.97-2.27,4.87-1.61,2.41-3.21,3.61-4.79,3.61-.87,0-2.27-.43-4.18-1.28-1.92-.85-3.09-1.52-3.51-2v-.34c.06-.1.18-.15.34-.15.06,0,.57.19,1.52.58.95.39,1.68.58,2.2.58,1.29,0,3.03-.9,5.22-2.7s3.29-3.18,3.29-4.14c0-.68-.81-1.91-2.42-3.71l2.08-3.42c2,2.57,3.92,4.21,5.76,4.92h1.07v3.9h0Z"></path><path class="cls-3" d="M1092.33,30.47c0,.74-.23,2.66-.68,5.76h-16.6v-3.81c6.13-.03,15.15-.03,15.15,0-.42-1.33-1.23-2.88-2.42-4.64l1.98-3.27c1.71,2.07,2.56,4.05,2.56,5.96h.01ZM1089.52,42.64c0,.29-.34.68-1.01,1.16-.68.48-1.08.72-1.21.72-.29,0-1.23-.63-2.81-1.88.06-.23.41-.68,1.04-1.37s1.06-1.04,1.28-1.04c.1,0,.57.37,1.43,1.11.86.74,1.28,1.17,1.28,1.3h0Z"></path></g><g><path class="cls-3" d="M588.05,58.19h-5.03c-.45,0-.67-.2-.47-.84.31-.83.64-1.31.92-1.61.45.11,1.2.14,4.03.14h9.95c-.11,1.48-.87,2.17-1.45,2.31h-4.45v11.64c0,1.92.06,2.84.08,3.4-.78.14-1.87.22-2.99.22-.39,0-.59-.08-.59-.5v-14.76Z"></path><path class="cls-3" d="M611.2,63.06v-6.4c0-.61.22-.72.67-.78.67-.05,2.04-.08,2.91-.11-.06,1.06-.08,2.73-.08,5.04v8.99c0,1.95.06,2.87.08,3.42-.56.14-2.35.22-2.99.22-.39,0-.59-.08-.59-.53v-7.63c-.56.06-1.48.08-3.19.08h-4.28v7.21c0,.58-.22.7-.87.75-.76.08-2.13.14-2.71.11.06-1.11.08-2.76.08-5.09v-8.8c0-1.89-.03-3.03-.08-3.56.73-.14,2.4-.22,2.99-.22.5,0,.59.25.59,1.5v5.79h7.47Z"></path><path class="cls-3" d="M619.56,59.78c0-1.34,0-2.34-.08-3.51.78-.19,2.01-.36,3.16-.39h6.79c-.17,1.25-.5,1.78-.84,2.14-.42.17-1.37.17-2.63.17h-2.91v4.98h6.09c-.25,1.95-.87,2.31-1.85,2.31h-4.25v5.46c.64.14,1.54.2,2.6.2,1.15,0,3.19,0,4.53-.11l.06.06c-.25,1.2-.78,1.84-1.48,2.23-.39.08-1.65.14-3.8.14-2.46,0-4.3-.14-4.98-.28l-.42-.53v-12.86h0Z"></path><path class="cls-3" d="M643.46,68.49c-.64,1.61-1.45,3.67-1.82,4.57-.11.25-.33.39-.78.39-.62,0-1.84-.17-2.46-.36v-.11c1.45-3.4,5.81-13.75,6.88-16.29l-.22-.59c1.03-.22,2.6-.33,2.94-.33.25,0,.5.17.64.5,1.29,3.06,3.41,8.55,4.39,10.97,1.15,2.84,1.82,4.59,2.38,5.76v.11c-.62.2-2.52.34-3.13.34-.45,0-.67-.14-.95-.89-.5-1.42-.89-2.48-1.54-4.07h-6.33ZM649.1,66.18c-1.29-3.45-2.12-5.54-2.43-6.43-.7,1.84-1.48,4.04-2.43,6.43h4.86Z"></path><path class="cls-3" d="M661.79,72.61c0,.56-.17.67-.64.72-.78.08-2.32.11-2.88.11.06-1.11.08-2.76.08-5.09v-9.33c0-1.39,0-2.06-.06-2.84.73-.17,3.52-.47,4.81-.47,4.44,0,6.65,1.5,6.65,5.04,0,2.65-2.24,3.93-3.35,4.43.64.56,1.51,1.95,2.46,3.59,1.34,2.34,2.24,3.59,2.94,4.34v.11c-.22.17-1.26.28-2.26.28s-1.76-.28-2.49-1.25c-.75-.97-1.31-2.09-2.43-4.26-.87-1.59-1.4-1.81-2.32-1.81h-.5v6.43h-.01ZM661.79,64.18c.75.08,2.29,0,2.68-.2.59-.22,1.71-1.06,1.71-2.92,0-2.31-1.45-3.28-3.19-3.28-.39,0-.87.03-1.2.08v6.32Z"></path><path class="cls-3" d="M677.92,58.19h-5.03c-.45,0-.67-.2-.48-.84.31-.83.64-1.31.92-1.61.45.11,1.2.14,4.03.14h9.95c-.11,1.48-.87,2.17-1.45,2.31h-4.44v11.64c0,1.92.06,2.84.08,3.4-.78.14-1.87.22-2.99.22-.39,0-.59-.08-.59-.5v-14.76Z"></path><path class="cls-3" d="M690.11,59.53c0-1.87-.03-3.01-.08-3.54.5-.08,2.43-.22,3.02-.22.48,0,.56.25.56,1.5v12.53c0,1.95.06,2.87.08,3.42-.47.14-2.35.22-2.99.22-.42,0-.59-.08-.59-.56v-13.36h0Z"></path><path class="cls-3" d="M698.47,59.25c0-1.22-.03-1.98-.08-2.95.5-.14,2.15-.36,3.38-.42,1.01-.03,5.76,0,7.1,0-.22,1.25-.62,1.78-.98,2.14-.36.17-.95.17-2.18.17h-3.75v5.54h6.32c-.28,2.12-.95,2.31-2.04,2.31h-4.28c0,2.78.03,5.1.08,7.18-.48.14-1.87.22-2.96.22-.42,0-.61-.08-.61-.53v-13.67h0Z"></path><path class="cls-3" d="M711.89,59.53c0-1.87-.03-3.01-.08-3.54.5-.08,2.43-.22,3.02-.22.47,0,.56.25.56,1.5v12.53c0,1.95.06,2.87.08,3.42-.47.14-2.35.22-2.99.22-.42,0-.59-.08-.59-.56v-13.36h0Z"></path><path class="cls-3" d="M734,70.55c-.08.95-.45,1.75-.92,2.2-.7.45-2.18.95-4.05.95-6.37,0-9.81-3.62-9.81-8.94,0-5.76,4.39-9.3,9.92-9.3,2.66,0,4.7.89,5.14,1.39.06.95-.59,1.89-1.48,1.75-.84-.36-2.15-.75-3.69-.75-3.38,0-6.15,2.2-6.15,6.65,0,3.79,2.43,6.68,6.88,6.68,1.87,0,3.35-.47,4.08-.7l.08.06h0Z"></path><path class="cls-3" d="M737.38,59.53c0-1.87-.03-3.01-.08-3.54.5-.08,2.43-.22,3.02-.22.47,0,.56.25.56,1.5v12.53c0,1.95.06,2.87.08,3.42-.48.14-2.35.22-2.99.22-.42,0-.59-.08-.59-.56v-13.36h0Z"></path><path class="cls-3" d="M748.95,68.49c-.64,1.61-1.45,3.67-1.82,4.57-.11.25-.33.39-.78.39-.62,0-1.85-.17-2.46-.36v-.11c1.45-3.4,5.81-13.75,6.88-16.29l-.22-.59c1.03-.22,2.6-.33,2.93-.33.25,0,.5.17.64.5,1.29,3.06,3.41,8.55,4.39,10.97,1.15,2.84,1.82,4.59,2.38,5.76v.11c-.62.2-2.52.34-3.13.34-.45,0-.67-.14-.95-.89-.5-1.42-.9-2.48-1.54-4.07,0,0-6.32,0-6.32,0ZM754.6,66.18c-1.29-3.45-2.12-5.54-2.43-6.43-.7,1.84-1.48,4.04-2.43,6.43h4.86Z"></path><path class="cls-3" d="M763.88,59.58c0-1.87-.03-3.01-.08-3.59.62-.08,1.96-.22,3.02-.22.47,0,.56.25.56,1.64v13.53c.53.14,1.48.2,2.52.2,1.15,0,2.85,0,4.22-.14l.03.06c-.17,1.09-.73,1.87-1.43,2.26-.39.08-1.37.14-3.52.14-2.32,0-4.19-.14-4.89-.28l-.42-.53v-13.06h-.01Z"></path><path class="cls-3" d="M783.65,59.53c0-1.87-.03-3.01-.08-3.54.5-.08,2.43-.22,3.02-.22.47,0,.56.25.56,1.5v12.53c0,1.95.06,2.87.08,3.42-.48.14-2.35.22-2.99.22-.42,0-.59-.08-.59-.56v-13.36h0Z"></path><path class="cls-3" d="M791.53,56.13v-.14c.53-.08,2.94-.22,3.44-.22.28,0,.5.19.78.5.89,1.28,3.19,4.76,5.2,7.85,1.26,1.98,2.29,3.54,2.96,4.96-.17-2.14-.14-3.23-.14-4.62v-7.77c0-.64.2-.75.59-.81.87-.08,1.62-.11,2.26-.11-.06,1.2-.08,2.81-.08,5.12v12.28c-.25.11-1.84.45-2.66.45-.34,0-.5-.11-.7-.39-1.45-2-2.88-4.18-5.09-7.57-1.48-2.34-2.29-3.9-3.44-6.04.17,2.81.14,4.26.14,5.68v7.3c0,.58-.17.67-.61.75-.5.08-1.4.14-2.24.11.06-1.11.08-2.73.08-5.07v-11.56l-.5-.7h0Z"></path><path class="cls-3" d="M815.09,58.19h-5.03c-.45,0-.67-.2-.48-.84.31-.83.64-1.31.92-1.61.45.11,1.2.14,4.03.14h9.95c-.11,1.48-.87,2.17-1.45,2.31h-4.44v11.64c0,1.92.06,2.84.08,3.4-.78.14-1.87.22-2.99.22-.39,0-.59-.08-.59-.5v-14.76Z"></path><path class="cls-3" d="M827.28,59.78c0-1.34,0-2.34-.08-3.51.78-.19,2.01-.36,3.16-.39h6.79c-.17,1.25-.5,1.78-.84,2.14-.42.17-1.37.17-2.63.17h-2.91v4.98h6.09c-.25,1.95-.87,2.31-1.84,2.31h-4.25v5.46c.64.14,1.54.2,2.6.2,1.15,0,3.19,0,4.53-.11l.06.06c-.25,1.2-.78,1.84-1.48,2.23-.39.08-1.65.14-3.8.14-2.46,0-4.31-.14-4.98-.28l-.42-.53v-12.86h0Z"></path><path class="cls-3" d="M841.12,59.58c0-1.87-.03-3.01-.08-3.59.61-.08,1.96-.22,3.02-.22.47,0,.56.25.56,1.64v13.53c.53.14,1.48.2,2.52.2,1.15,0,2.85,0,4.22-.14l.03.06c-.17,1.09-.73,1.87-1.43,2.26-.39.08-1.37.14-3.52.14-2.32,0-4.19-.14-4.89-.28l-.42-.53v-13.06h-.01Z"></path><path class="cls-3" d="M854.2,59.58c0-1.87-.03-3.01-.08-3.59.62-.08,1.96-.22,3.02-.22.47,0,.56.25.56,1.64v13.53c.53.14,1.48.2,2.52.2,1.15,0,2.85,0,4.22-.14l.03.06c-.17,1.09-.73,1.87-1.43,2.26-.39.08-1.37.14-3.52.14-2.32,0-4.19-.14-4.89-.28l-.42-.53v-13.06h-.01Z"></path><path class="cls-3" d="M867.28,59.53c0-1.87-.03-3.01-.08-3.54.5-.08,2.43-.22,3.02-.22.47,0,.56.25.56,1.5v12.53c0,1.95.06,2.87.08,3.42-.48.14-2.35.22-2.99.22-.42,0-.59-.08-.59-.56v-13.36h0Z"></path><path class="cls-3" d="M886.82,67.57c0-1.17-.06-1.81-.11-2.48.89-.14,2.24-.42,3.02-.42.42,0,.59.17.59.75v6.29c-.53.45-1.45,1.03-2.21,1.39-.98.28-2.49.59-3.83.59-4.7,0-9.67-2.06-9.67-8.99,0-5.74,4.45-9.24,9.92-9.24,3.05,0,5.12.97,5.79,1.61.03,1.09-.78,1.92-1.68,1.75-1.26-.61-2.71-.92-4.19-.92-3.44,0-6.09,2.23-6.09,6.57,0,4.84,3.24,7.04,6.51,7.04.78,0,1.62-.17,1.96-.31v-3.65.02Z"></path><path class="cls-3" d="M894.54,59.78c0-1.34,0-2.34-.08-3.51.78-.19,2.01-.36,3.16-.39h6.79c-.17,1.25-.5,1.78-.84,2.14-.42.17-1.37.17-2.63.17h-2.91v4.98h6.09c-.25,1.95-.87,2.31-1.84,2.31h-4.25v5.46c.64.14,1.54.2,2.6.2,1.15,0,3.19,0,4.53-.11l.06.06c-.25,1.2-.78,1.84-1.48,2.23-.39.08-1.65.14-3.8.14-2.46,0-4.31-.14-4.98-.28l-.42-.53v-12.86h0Z"></path><path class="cls-3" d="M907.9,56.13v-.14c.53-.08,2.94-.22,3.44-.22.28,0,.5.19.78.5.89,1.28,3.19,4.76,5.2,7.85,1.26,1.98,2.29,3.54,2.96,4.96-.17-2.14-.14-3.23-.14-4.62v-7.77c0-.64.2-.75.59-.81.87-.08,1.62-.11,2.26-.11-.06,1.2-.08,2.81-.08,5.12v12.28c-.25.11-1.85.45-2.66.45-.34,0-.5-.11-.7-.39-1.45-2-2.88-4.18-5.09-7.57-1.48-2.34-2.29-3.9-3.44-6.04.17,2.81.14,4.26.14,5.68v7.3c0,.58-.17.67-.62.75-.5.08-1.4.14-2.24.11.06-1.11.08-2.73.08-5.07v-11.56l-.5-.7h.02Z"></path><path class="cls-3" d="M941.59,70.55c-.08.95-.45,1.75-.92,2.2-.7.45-2.18.95-4.05.95-6.37,0-9.81-3.62-9.81-8.94,0-5.76,4.39-9.3,9.92-9.3,2.66,0,4.7.89,5.14,1.39.06.95-.59,1.89-1.48,1.75-.84-.36-2.15-.75-3.69-.75-3.38,0-6.15,2.2-6.15,6.65,0,3.79,2.43,6.68,6.88,6.68,1.87,0,3.35-.47,4.08-.7l.08.06h0Z"></path><path class="cls-3" d="M944.97,59.78c0-1.34,0-2.34-.08-3.51.78-.19,2.01-.36,3.16-.39h6.79c-.17,1.25-.5,1.78-.84,2.14-.42.17-1.37.17-2.63.17h-2.91v4.98h6.09c-.25,1.95-.87,2.31-1.84,2.31h-4.25v5.46c.64.14,1.54.2,2.6.2,1.15,0,3.19,0,4.53-.11l.06.06c-.25,1.2-.78,1.84-1.48,2.23-.39.08-1.65.14-3.8.14-2.46,0-4.31-.14-4.98-.28l-.42-.53v-12.86h0Z"></path><path class="cls-3" d="M965.43,59.81c0-1.33,0-2.48-.11-3.76.75-.11,2.66-.33,4.58-.33,4.25,0,7.21,1.45,7.21,5.65s-3.47,5.54-5.31,5.57c-.45,0-1.12-.06-1.42-.22-.42-.22-.92-1-.92-1.89.22.05.62.08.89.08,1.4,0,3.13-.72,3.13-3.54,0-2.65-1.79-3.48-3.44-3.48-.33,0-.73.03-1.12.08v11.94c0,1.95.06,2.76.08,3.31-.47.14-2.21.22-2.96.22-.42,0-.61-.08-.61-.5v-13.14h0Z"></path><path class="cls-3" d="M983.79,72.61c0,.56-.17.67-.64.72-.78.08-2.32.11-2.88.11.05-1.11.08-2.76.08-5.09v-9.33c0-1.39,0-2.06-.06-2.84.73-.17,3.52-.47,4.81-.47,4.44,0,6.65,1.5,6.65,5.04,0,2.65-2.24,3.93-3.35,4.43.64.56,1.51,1.95,2.46,3.59,1.34,2.34,2.24,3.59,2.94,4.34v.11c-.22.17-1.26.28-2.27.28s-1.76-.28-2.49-1.25c-.75-.97-1.31-2.09-2.43-4.26-.87-1.59-1.4-1.81-2.32-1.81h-.5v6.43h0ZM983.79,64.18c.76.08,2.29,0,2.68-.2.59-.22,1.71-1.06,1.71-2.92,0-2.31-1.45-3.28-3.19-3.28-.39,0-.87.03-1.2.08v6.32Z"></path><path class="cls-3" d="M1004.45,55.46c5.65,0,8.92,4.06,8.92,8.96s-3.1,9.27-9.03,9.27c-6.46,0-9-4.76-9-8.96,0-5.26,3.38-9.27,9.08-9.27,0,0,.03,0,.03,0ZM1004.12,57.63c-2.74,0-5,2.2-5,6.77s2.54,7.13,5.48,7.13c3.13,0,5.06-2.51,5.06-6.85,0-3.95-2.04-7.04-5.51-7.04h-.03,0Z"></path><path class="cls-3" d="M1028.66,67.57c0-1.17-.06-1.81-.11-2.48.89-.14,2.24-.42,3.02-.42.42,0,.59.17.59.75v6.29c-.53.45-1.45,1.03-2.21,1.39-.98.28-2.49.59-3.83.59-4.7,0-9.67-2.06-9.67-8.99,0-5.74,4.45-9.24,9.92-9.24,3.05,0,5.12.97,5.79,1.61.03,1.09-.78,1.92-1.68,1.75-1.26-.61-2.71-.92-4.19-.92-3.44,0-6.09,2.23-6.09,6.57,0,4.84,3.24,7.04,6.51,7.04.78,0,1.62-.17,1.96-.31v-3.65.02Z"></path><path class="cls-3" d="M1039.79,72.61c0,.56-.17.67-.64.72-.78.08-2.32.11-2.88.11.06-1.11.08-2.76.08-5.09v-9.33c0-1.39,0-2.06-.06-2.84.73-.17,3.52-.47,4.81-.47,4.45,0,6.65,1.5,6.65,5.04,0,2.65-2.24,3.93-3.35,4.43.64.56,1.51,1.95,2.46,3.59,1.34,2.34,2.24,3.59,2.94,4.34v.11c-.22.17-1.26.28-2.27.28s-1.76-.28-2.49-1.25c-.76-.97-1.31-2.09-2.43-4.26-.87-1.59-1.4-1.81-2.32-1.81h-.5v6.43h0ZM1039.79,64.18c.75.08,2.29,0,2.68-.2.59-.22,1.71-1.06,1.71-2.92,0-2.31-1.45-3.28-3.19-3.28-.39,0-.87.03-1.2.08v6.32h0Z"></path><path class="cls-3" d="M1056.75,68.49c-.64,1.61-1.45,3.67-1.82,4.57-.11.25-.33.39-.78.39-.62,0-1.85-.17-2.46-.36v-.11c1.45-3.4,5.81-13.75,6.88-16.29l-.22-.59c1.03-.22,2.6-.33,2.93-.33.25,0,.5.17.64.5,1.28,3.06,3.41,8.55,4.39,10.97,1.15,2.84,1.82,4.59,2.38,5.76v.11c-.61.2-2.52.34-3.13.34-.45,0-.67-.14-.95-.89-.5-1.42-.89-2.48-1.54-4.07h-6.32ZM1062.4,66.18c-1.29-3.45-2.12-5.54-2.43-6.43-.7,1.84-1.48,4.04-2.43,6.43h4.86Z"></path><path class="cls-3" d="M1086.47,56.16c.42-.22,2.29-.39,2.96-.39.28,0,.45.17.53.86l1.48,10.25c.45,2.92.75,4.98,1.01,6.32-.47.14-2.24.25-2.79.25-.36,0-.73-.14-.78-.7-.17-1.42-.34-2.92-.64-5.87l-.81-6.99c-.78,2.42-2.43,7.04-4.22,12.28-.2.56-.39.78-1.01.92-.5.08-1.17.2-1.73.2-.67-2.17-3.13-9.55-4.39-13.34-.39,3.42-1.23,9.8-1.65,13.06-.06.31-.2.45-.5.45-.75,0-2.04,0-2.49-.25.5-2.95,1.62-10.16,2.71-16.51l-.08-.53c.7-.14,1.71-.39,3.05-.39.42.11.64.5,1.15,1.92l3.77,10.38c1.4-3.65,3.27-8.66,4.45-11.5v-.42h-.02Z"></path></g></g><g><g><path class="cls-1" d="M1168.08,36.23h-.92c-.52.99-1.05,1.98-1.6,2.97-.74,1.21-1.48,2.1-2.23,2.68-.23.06-.53.19-.92.38-1.1.51-2.61.97-4.55,1.39-1,.22-2.02.34-3.05.34-1.65,0-3.11-.32-4.4-.97-1.74-.9-2.61-2.22-2.61-3.95s.71-3.58,2.13-5.73c1.32-2.05,2.52-3.28,3.58-3.66.13.35.03.71-.3,1.06-2.06,2.15-3.09,3.95-3.09,5.4s.87,2.65,2.62,3.42c1.26.58,2.61.87,4.03.87.71,0,1.72-.1,3.01-.29.87-.16,1.73-.37,2.57-.62.32-.09.79-.21,1.41-.33l.15-.19c-.81-1.21-1.9-1.95-3.29-2.24-1.13-.06-2.27-.14-3.43-.24l2.32-4.09h8.56v3.81h.01ZM1159.57,47.36c-1.13,1.16-1.76,1.73-1.89,1.73-.29,0-1.08-.5-2.37-1.49-1.26.99-1.86,1.49-1.79,1.49-.13,0-1-.53-2.61-1.59,1.16-1.22,1.79-1.83,1.89-1.83s.51.24,1.23.72c.73.48,1.12.72,1.19.72.1,0,.4-.24.9-.72s.78-.72.85-.72c.03,0,.9.56,2.61,1.69h0Z"></path><path class="cls-1" d="M1208.48,32.09l-2.32,4.14h-38.76v-3.81h25.99c0-.49.03-1.22.1-2.19.1-.46.4-1.03.92-1.71,1.87-2.44,3.64-3.98,5.32-4.63.39-.16.74-.24,1.06-.24.48,0,.93.09,1.35.26.42.18.73.33.92.46.84.58,1.47,1.17,1.89,1.78.97,1.38,1.43,2.27,1.4,2.65v.82c-1.13-1.12-2.44-1.78-3.92-1.98-.64-.1-1.29-.14-1.93-.14-.9,0-1.66.07-2.27.2-.9.2-1.58.51-2.03.93.87,1.54,2.13,2.77,3.77,3.69.13.07.42.1.87.1.1,0,.69-.06,1.79-.17,1.1-.11,1.69-.17,1.79-.17h4.06,0Z"></path><path class="cls-1" d="M1219.22,36.23h-5.47l-1.69-17.87c0-.13.18-.4.53-.82.58-.74,1.32-1.56,2.23-2.46.1.78.21,1.92.34,3.44.58,6.3,1.05,10.66,1.4,13.09.03.16.18.27.44.34.13.03.35.12.68.27.32.15.56.22.73.22h.82v3.81-.02Z"></path><path class="cls-1" d="M1275.24,36.23h-2.76c-.06,0-.26-.07-.58-.2-.55-.23-1.06-.95-1.55-2.16l-1.26,2.36h-50.81v-3.81h51.54c.23-.36.32-.9.29-1.62-.03-.72.02-1.21.15-1.47.23-.59,1.08-1.61,2.56-3.08v2.5c0,.1-.05.45-.15,1.05-.1.61-.15.94-.15,1,0,1.08.64,1.62,1.94,1.62h.77v3.81h.01ZM1272.24,20.86c0,.16-.1.34-.29.53-.32.32-1.02.84-2.08,1.54-.32.1-.45.14-.39.14-.16,0-.63-.27-1.4-.82-.9-.64-1.35-1.11-1.35-1.4,0-.16.11-.35.34-.58.74-.77,1.37-1.35,1.89-1.74.23-.16.4-.24.53-.24s.62.39,1.48,1.18c.85.79,1.28,1.25,1.28,1.37v.02Z"></path><path class="cls-1" d="M1300.78,36.23h-26.9v-3.81h5.52c.35,0,.68-.24.97-.73.29-.49.44-.89.44-1.21-.39-2.91-.66-5.09-.82-6.54-.26-1.68-.58-3.1-.97-4.26,0-.03-.13-.19-.39-.48-.26-.29-.39-.56-.39-.82,0-.19.11-.5.34-.92s.87-1.32,1.94-2.71c.06,0,.15.02.24.05.03.29.19.66.48,1.11.39.61,1.03,1.19,1.93,1.73.68.39,1.37.77,2.08,1.16-.35.71-.69,1.41-1.02,2.12-.48.87-1.11,1.32-1.89,1.35.42,1.73.63,3.21.63,4.43,0,.1-.1.63-.29,1.59-.23,1.09-.37,1.88-.44,2.36.84-.55,2.06-1.33,3.68-2.36.77-.45,2.11-1.13,4.02-2.03,1.35-.64,2.43-1.06,3.24-1.25.39-.1.65-.14.77-.14.22,0,.69.15,1.4.44.84.36,1.69.99,2.56,1.91,1.06,1.07,1.61,2.03,1.64,2.88l-.87,2.34h2.08v3.81l.02-.02ZM1295.51,31.79v-.49c-.84-1.47-1.86-2.33-3.05-2.59-.13-.03-.44-.05-.92-.05-.55,0-1.29.12-2.23.34-.55.16-1.4.59-2.56,1.27-.94.59-1.89,1.16-2.85,1.71h11.13c.1,0,.19-.03.29-.1.1-.07.16-.1.19-.1h0Z"></path><path class="cls-1" d="M1313.46,31.99s-.08.07-.15.22c-.06.14-.13.22-.19.22v3.81h-2.81c-.29,0-.59-.16-.9-.47-.31-.32-.49-.62-.56-.92-.81.93-1.4,1.4-1.79,1.4h-7.44v-3.81l8.8-.1c.35,0,.6-.42.73-1.25.03-.45.06-.9.1-1.35.58-.8,1.63-1.94,3.14-3.42.03.55-.11,1.35-.44,2.41-.58,1.77-.87,2.7-.87,2.8.55.55,1.06.82,1.55.82.1,0,.23-.06.41-.17s.31-.17.41-.17v-.02Z"></path><path class="cls-1" d="M1332.08,29.65c0,.06-.31.86-.92,2.37-.52,1.26-1.13,2.44-1.84,3.53-.29.45-.55.68-.77.68h-17.08v-3.95h1.93c1.93-1.02,3.36-1.8,4.26-2.35,1.16-.8,2.92-1.95,5.27-3.45,1-.64,1.94-1.12,2.81-1.44.23-.1.5-.14.82-.14.39,0,.77.08,1.16.24,1.68.71,2.97,1.76,3.87,3.15.32.58.48,1.03.48,1.36h0ZM1328.41,31.35c0-.46-.26-.85-.77-1.17-1-.65-1.86-1.08-2.56-1.27-.07-.03-.24-.05-.53-.05-.55,0-.98.08-1.31.24-1.45.82-3.34,1.87-5.66,3.18h9.63c.32,0,.68-.18,1.06-.54.1-.2.15-.33.15-.39h0Z"></path><path class="cls-1" d="M1354.77,18.98c0,.22-.71,1.35-2.13,3.37-.03.03-.13.05-.29.05-.26,0-.53-.11-.82-.34-.23,1.36-.52,2.55-.87,3.58-.13.36-.42.9-.87,1.64s-.68,1.15-.68,1.21.11.29.34.68c.68,1.19,1.02,2.48,1.02,3.87,0,1-.1,2.06-.29,3.19h-10.3c-.48-.26-.73-1.07-.73-2.43,0-1.2.18-2.24.53-3.11.16.23.39.54.68.92s.69.57,1.21.57c.77,0,2.32-1.05,4.64-3.15-.23-.55-.82-1.32-1.79-2.33-.97-1-1.77-1.7-2.42-2.09-.13.26-.32.64-.58,1.16-.13-.1-1.66-.98-4.6-2.65-.45-.26-.68-.9-.68-1.93,0-.26.16-1.04.48-2.36h2.9c.1-.19.13-.55.1-1.06,1.39.84,2.92,2.14,4.6,3.9,1.68,1.77,2.9,3.36,3.68,4.77.68-1.12,1.02-2.6,1.02-4.43,0-.96-.32-1.83-.97-2.6l2.9-4.48c0,.32.11.79.34,1.4.1.16.53.53,1.31,1.11,1.51.8,2.27,1.32,2.27,1.54ZM1348.15,32.37c-.32-.71-.69-1.43-1.11-2.17-.9,1.03-1.66,1.75-2.27,2.17,1.19.13,2.32.13,3.39,0h-.01Z"></path><path class="cls-1" d="M1362.71,29.03c0,2.83-.66,5.23-1.98,7.2l-1.79-14.93c0-.26.4-1.05,1.21-2.37.71-1.13,1.24-1.92,1.6-2.37l.97,12.46h0Z"></path><path class="cls-1" d="M1383.75,29.72c-.39.88-1.03,1.85-1.94,2.91-.35.03-.87.1-1.55.19-1.19.13-2.24.39-3.15.78-.26.1-1.79.97-4.6,2.62-.03-.61.34-1.34,1.11-2.18.68-.71,1.35-1.22,2.03-1.55-.68-.16-1.37-.31-2.08-.43-1.03-.29-1.55-.74-1.55-1.35,0-1.71.71-3.32,2.13-4.82s3.02-2.25,4.79-2.25c.58,0,1.13.18,1.64.53.52.35.77.82.77,1.4,0,.22-.5,1.04-1.5,2.46-.42-.22-.84-.47-1.26-.72-.65-.35-1.11-.53-1.4-.53-.48,0-.98.13-1.5.39-.61.32-.92.68-.92,1.06,0,.51.82.9,2.47,1.15,1.1.1,2.19.21,3.29.34h3.22Z"></path><path class="cls-1" d="M1394.25,36.23h-5.47l-1.69-17.87c0-.13.18-.4.53-.82.58-.74,1.32-1.56,2.23-2.46.1.78.21,1.92.34,3.44.58,6.3,1.05,10.66,1.4,13.09.03.16.18.27.44.34.13.03.36.12.68.27.32.15.56.22.73.22h.82v3.81-.02Z"></path><path class="cls-1" d="M1452.01,16.42c-.26,1.35-.61,2.62-1.07,3.8-1.26.45-4.05,1.37-8.37,2.75,1.35,1.19,2.71,2.37,4.06,3.53,1.68,1.49,3.01,2.9,4.01,4.26.22.32.34.63.34.92l-1.11,4.55h-56.57v-3.81h54.53l-5.42-4.63c-.03.06-.12.18-.27.34s-.23.27-.27.34c-.29-.26-.73-.69-1.31-1.3-1.19-1.28-1.79-2.03-1.79-2.22,0-.06.45-1.7,1.36-4.91l11.85-3.61h.03Z"></path><path class="cls-1" d="M1471.22,36.23h-2.95c-.23-.59-.58-1.47-1.06-2.65-.35.1-.66.46-.92,1.08-.35.79-.66,1.31-.92,1.57h-8.81c-.26,0-.47-.29-.63-.87,0-.97.16-2.28.48-3.93.23-1.03.6-1.89,1.11-2.57.03.03.1.12.19.25-.1,1.39-.08,2.29.05,2.7s.34.61.63.61h8.23c.1-.2.15-.36.15-.49,0-.52-.24-1.67-.73-3.44-.29-.88-.56-1.77-.82-2.65l1.98-3.93c.58,2.2,1.39,5.37,2.42,9.49.16.68.5,1.02,1.02,1.02h.58v3.81h0ZM1463.19,20.09c-.1.26-.43.64-1.02,1.16-.58.51-1.02.77-1.31.77-.16,0-.57-.27-1.23-.8-.66-.53-.99-.84-.99-.94,0-.16.33-.56.99-1.21.66-.64,1.07-.96,1.23-.96.23,0,1,.66,2.32,1.98h.01Z"></path><path class="cls-1" d="M1490.62,20.4c-.13.32-.42.74-.87,1.26-.1.1-.73.9-1.89,2.42-.06.1-.1.24-.1.44l.82,6.68-.92,4.84c-.07,0-.17.03-.31.1-.14.06-.27.1-.36.1h-16.79v-3.81h15.68c.1-.49.15-.87.15-1.17,0-.58-.15-1.67-.44-3.26-.23-1.46-.66-3.61-1.31-6.47l-1.4-1.12c.9-1.85,1.81-3.4,2.71-4.67,0,.68.11,1.19.34,1.55.13.19.81.68,2.03,1.45.87.58,1.76,1.13,2.66,1.65h0Z"></path><path class="cls-1" d="M1499.42,29.03c0,2.83-.66,5.23-1.98,7.2l-1.79-14.93c0-.26.4-1.05,1.21-2.37.71-1.13,1.24-1.92,1.6-2.37l.97,12.46h0Z"></path><path class="cls-1" d="M1526.76,36.23h-5.57c-.9,0-1.69-.3-2.35-.9-.66-.6-.99-1.3-.99-2.11,0-.42.08-.91.24-1.46.16-.42.31-.84.44-1.26l.1-.1c-.91.13-2.27.43-4.06.92-.46.32-1.13.8-2.01,1.42-.88.63-1.6,1.47-2.15,2.53-.46.93-.68,1.75-.68,2.46,0,2.44,1.69,4.19,5.08,5.25,2.03.61,4.29.93,6.77.96h3.14c-1.87,2.05-4.61,3.08-8.22,3.08-2.39,0-4.35-.5-5.9-1.49-1.87-1.25-2.81-3.12-2.81-5.59,0-3.5,1.77-6.95,5.32-10.36-.06-.13-.27-.22-.63-.29-.87-.16-1.6-.24-2.18-.24-.71,0-1.74.35-3.1,1.06v-.44c0-.42.24-1.08.73-1.98.39-.77.73-1.33,1.02-1.69.42-.51,1.03-.79,1.84-.82l7.02,1.21h5.18c-.35.81-.89,1.99-1.6,3.55l-1.16.19c-.36.07-.53.32-.53.78,0,.39.21.74.63,1.04.42.31.81.46,1.16.46h5.27v3.81h0ZM1518.63,39.31c0,.22-.39.61-1.16,1.16s-1.21.82-1.31.82-.53-.28-1.31-.84c-.77-.56-1.16-.94-1.16-1.13s.35-.62,1.06-1.28c.71-.66,1.16-.99,1.35-.99s.66.36,1.4,1.08,1.11,1.12,1.11,1.18h.02Z"></path><path class="cls-1" d="M1584.23,31.41c0,.26-.11.6-.34,1.01-.13.22-.84,1.35-2.13,3.37l-7.35-2.65c-.52.2-.92.65-1.21,1.37-.35.85-.69,1.42-1.02,1.71h-46.93v-3.81h47.41c.16-.39.37-.93.63-1.61.32-.98.85-1.97,1.6-2.97.84-1.14,1.73-1.92,2.66-2.34,2.19-1.04,3.66-1.53,4.4-1.46.16.13.26.24.29.34.45,1.32,1.06,3.28,1.84,5.88.1.35.14.74.14,1.16h0ZM1580.65,30.79c-.26-1.03-.42-1.62-.48-1.78-.29-.74-.71-1.11-1.26-1.11-.29,0-.65.08-1.06.24-.52.19-.9.38-1.16.55-.26.18-.39.3-.39.36l4.36,1.74h0Z"></path><path class="cls-1" d="M1595.41,36.23h-5.47l-1.69-17.87c0-.13.18-.4.53-.82.58-.74,1.32-1.56,2.22-2.46.1.78.21,1.92.34,3.44.58,6.3,1.05,10.66,1.4,13.09.03.16.18.27.43.34.13.03.35.12.68.27.32.15.56.22.72.22h.82v3.81l.02-.02Z"></path><path class="cls-1" d="M1619.98,30.28c0,1.06-.39,3.05-1.16,5.95h-23.69v-3.81h22.34c-.36-2.05-1.19-3.69-2.52-4.92l2.18-3.75c1.9,2.26,2.86,4.44,2.86,6.53h-.01ZM1616.98,19.89c-.55.93-1.35,1.83-2.42,2.7l-3.48-1.69,2.66-2.75c1.1.67,2.18,1.25,3.24,1.74Z"></path><path class="cls-1" d="M1638.7,36.23h-3.29c-.29,0-.63-.24-1.02-.72-.23,1.35-.98,2.97-2.27,4.87-1.61,2.41-3.21,3.61-4.79,3.61-.87,0-2.27-.43-4.18-1.28-1.92-.85-3.09-1.52-3.51-2v-.34c.06-.1.18-.15.34-.15.06,0,.57.19,1.52.58.95.39,1.68.58,2.2.58,1.29,0,3.03-.9,5.22-2.7s3.29-3.18,3.29-4.14c0-.68-.81-1.91-2.42-3.71l2.08-3.42c2,2.57,3.92,4.21,5.76,4.92h1.07v3.9h0Z"></path><path class="cls-1" d="M1655.42,30.47c0,.74-.23,2.66-.68,5.76h-16.6v-3.81c6.13-.03,15.15-.03,15.15,0-.42-1.33-1.23-2.88-2.42-4.64l1.98-3.27c1.71,2.07,2.56,4.05,2.56,5.96h.01ZM1652.61,42.64c0,.29-.34.68-1.01,1.16-.68.48-1.08.72-1.21.72-.29,0-1.23-.63-2.81-1.88.06-.23.41-.68,1.04-1.37s1.06-1.04,1.28-1.04c.1,0,.57.37,1.43,1.11.86.74,1.28,1.17,1.28,1.3h0Z"></path></g><g><path class="cls-1" d="M1151.14,58.19h-5.03c-.45,0-.67-.2-.47-.84.31-.83.64-1.31.92-1.61.45.11,1.2.14,4.03.14h9.95c-.11,1.48-.87,2.17-1.45,2.31h-4.45v11.64c0,1.92.06,2.84.08,3.4-.78.14-1.87.22-2.99.22-.39,0-.59-.08-.59-.5v-14.76h0Z"></path><path class="cls-1" d="M1174.28,63.06v-6.4c0-.61.22-.72.67-.78.67-.05,2.04-.08,2.91-.11-.06,1.06-.08,2.73-.08,5.04v8.99c0,1.95.06,2.87.08,3.42-.56.14-2.35.22-2.99.22-.39,0-.59-.08-.59-.53v-7.63c-.56.06-1.48.08-3.19.08h-4.28v7.21c0,.58-.22.7-.87.75-.76.08-2.13.14-2.71.11.06-1.11.08-2.76.08-5.09v-8.8c0-1.89-.03-3.03-.08-3.56.73-.14,2.4-.22,2.99-.22.5,0,.59.25.59,1.5v5.79h7.47Z"></path><path class="cls-1" d="M1182.64,59.78c0-1.34,0-2.34-.08-3.51.78-.19,2.01-.36,3.16-.39h6.79c-.17,1.25-.5,1.78-.84,2.14-.42.17-1.37.17-2.63.17h-2.91v4.98h6.09c-.25,1.95-.87,2.31-1.85,2.31h-4.25v5.46c.64.14,1.54.2,2.6.2,1.15,0,3.19,0,4.53-.11l.06.06c-.25,1.2-.78,1.84-1.48,2.23-.39.08-1.65.14-3.8.14-2.46,0-4.3-.14-4.98-.28l-.42-.53v-12.86h0Z"></path><path class="cls-1" d="M1206.54,68.49c-.64,1.61-1.45,3.67-1.82,4.57-.11.25-.33.39-.78.39-.62,0-1.84-.17-2.46-.36v-.11c1.45-3.4,5.81-13.75,6.88-16.29l-.22-.59c1.03-.22,2.6-.33,2.94-.33.25,0,.5.17.64.5,1.29,3.06,3.41,8.55,4.39,10.97,1.15,2.84,1.82,4.59,2.38,5.76v.11c-.62.2-2.52.34-3.13.34-.45,0-.67-.14-.95-.89-.5-1.42-.89-2.48-1.54-4.07h-6.33ZM1212.19,66.18c-1.29-3.45-2.12-5.54-2.43-6.43-.7,1.84-1.48,4.04-2.43,6.43h4.86Z"></path><path class="cls-1" d="M1224.88,72.61c0,.56-.17.67-.64.72-.78.08-2.32.11-2.88.11.06-1.11.08-2.76.08-5.09v-9.33c0-1.39,0-2.06-.06-2.84.73-.17,3.52-.47,4.81-.47,4.44,0,6.65,1.5,6.65,5.04,0,2.65-2.24,3.93-3.35,4.43.64.56,1.51,1.95,2.46,3.59,1.34,2.34,2.24,3.59,2.94,4.34v.11c-.22.17-1.26.28-2.26.28s-1.76-.28-2.49-1.25c-.75-.97-1.31-2.09-2.43-4.26-.87-1.59-1.4-1.81-2.32-1.81h-.5v6.43h0ZM1224.88,64.18c.75.08,2.29,0,2.68-.2.59-.22,1.71-1.06,1.71-2.92,0-2.31-1.45-3.28-3.19-3.28-.39,0-.87.03-1.2.08v6.32h0Z"></path><path class="cls-1" d="M1241.01,58.19h-5.03c-.45,0-.67-.2-.48-.84.31-.83.64-1.31.92-1.61.45.11,1.2.14,4.03.14h9.95c-.11,1.48-.87,2.17-1.45,2.31h-4.44v11.64c0,1.92.06,2.84.08,3.4-.78.14-1.87.22-2.99.22-.39,0-.59-.08-.59-.5v-14.76h0Z"></path><path class="cls-1" d="M1253.2,59.53c0-1.87-.03-3.01-.08-3.54.5-.08,2.43-.22,3.02-.22.48,0,.56.25.56,1.5v12.53c0,1.95.06,2.87.08,3.42-.47.14-2.35.22-2.99.22-.42,0-.59-.08-.59-.56v-13.36h0Z"></path><path class="cls-1" d="M1261.56,59.25c0-1.22-.03-1.98-.08-2.95.5-.14,2.15-.36,3.38-.42,1.01-.03,5.76,0,7.1,0-.22,1.25-.62,1.78-.98,2.14-.36.17-.95.17-2.18.17h-3.75v5.54h6.32c-.28,2.12-.95,2.31-2.04,2.31h-4.28c0,2.78.03,5.1.08,7.18-.48.14-1.87.22-2.96.22-.42,0-.61-.08-.61-.53v-13.67h0Z"></path><path class="cls-1" d="M1274.97,59.53c0-1.87-.03-3.01-.08-3.54.5-.08,2.43-.22,3.02-.22.47,0,.56.25.56,1.5v12.53c0,1.95.06,2.87.08,3.42-.47.14-2.35.22-2.99.22-.42,0-.59-.08-.59-.56v-13.36h0Z"></path><path class="cls-1" d="M1297.09,70.55c-.08.95-.45,1.75-.92,2.2-.7.45-2.18.95-4.05.95-6.37,0-9.81-3.62-9.81-8.94,0-5.76,4.39-9.3,9.92-9.3,2.66,0,4.7.89,5.14,1.39.06.95-.59,1.89-1.48,1.75-.84-.36-2.15-.75-3.69-.75-3.38,0-6.15,2.2-6.15,6.65,0,3.79,2.43,6.68,6.88,6.68,1.87,0,3.35-.47,4.08-.7l.08.06h0Z"></path><path class="cls-1" d="M1300.47,59.53c0-1.87-.03-3.01-.08-3.54.5-.08,2.43-.22,3.02-.22.47,0,.56.25.56,1.5v12.53c0,1.95.06,2.87.08,3.42-.48.14-2.35.22-2.99.22-.42,0-.59-.08-.59-.56v-13.36h0Z"></path><path class="cls-1" d="M1312.04,68.49c-.64,1.61-1.45,3.67-1.82,4.57-.11.25-.33.39-.78.39-.62,0-1.85-.17-2.46-.36v-.11c1.45-3.4,5.81-13.75,6.88-16.29l-.22-.59c1.03-.22,2.6-.33,2.93-.33.25,0,.5.17.64.5,1.29,3.06,3.41,8.55,4.39,10.97,1.15,2.84,1.82,4.59,2.38,5.76v.11c-.62.2-2.52.34-3.13.34-.45,0-.67-.14-.95-.89-.5-1.42-.9-2.48-1.54-4.07h-6.32ZM1317.69,66.18c-1.29-3.45-2.12-5.54-2.43-6.43-.7,1.84-1.48,4.04-2.43,6.43h4.86Z"></path><path class="cls-1" d="M1326.97,59.58c0-1.87-.03-3.01-.08-3.59.62-.08,1.96-.22,3.02-.22.47,0,.56.25.56,1.64v13.53c.53.14,1.48.2,2.52.2,1.15,0,2.85,0,4.22-.14l.03.06c-.17,1.09-.73,1.87-1.43,2.26-.39.08-1.37.14-3.52.14-2.32,0-4.19-.14-4.89-.28l-.42-.53v-13.06h-.01Z"></path><path class="cls-1" d="M1346.73,59.53c0-1.87-.03-3.01-.08-3.54.5-.08,2.43-.22,3.02-.22.47,0,.56.25.56,1.5v12.53c0,1.95.06,2.87.08,3.42-.48.14-2.35.22-2.99.22-.42,0-.59-.08-.59-.56v-13.36h0Z"></path><path class="cls-1" d="M1354.61,56.13v-.14c.53-.08,2.94-.22,3.44-.22.28,0,.5.19.78.5.89,1.28,3.19,4.76,5.2,7.85,1.26,1.98,2.29,3.54,2.96,4.96-.17-2.14-.14-3.23-.14-4.62v-7.77c0-.64.2-.75.59-.81.87-.08,1.62-.11,2.26-.11-.06,1.2-.08,2.81-.08,5.12v12.28c-.25.11-1.84.45-2.66.45-.34,0-.5-.11-.7-.39-1.45-2-2.88-4.18-5.09-7.57-1.48-2.34-2.29-3.9-3.44-6.04.17,2.81.14,4.26.14,5.68v7.3c0,.58-.17.67-.61.75-.5.08-1.4.14-2.24.11.06-1.11.08-2.73.08-5.07v-11.56l-.5-.7h.01Z"></path><path class="cls-1" d="M1378.18,58.19h-5.03c-.45,0-.67-.2-.48-.84.31-.83.64-1.31.92-1.61.45.11,1.2.14,4.03.14h9.95c-.11,1.48-.87,2.17-1.45,2.31h-4.44v11.64c0,1.92.06,2.84.08,3.4-.78.14-1.87.22-2.99.22-.39,0-.59-.08-.59-.5v-14.76h0Z"></path><path class="cls-1" d="M1390.37,59.78c0-1.34,0-2.34-.08-3.51.78-.19,2.01-.36,3.16-.39h6.79c-.17,1.25-.5,1.78-.84,2.14-.42.17-1.37.17-2.63.17h-2.91v4.98h6.09c-.25,1.95-.87,2.31-1.84,2.31h-4.25v5.46c.64.14,1.54.2,2.6.2,1.15,0,3.19,0,4.53-.11l.06.06c-.25,1.2-.78,1.84-1.48,2.23-.39.08-1.65.14-3.8.14-2.46,0-4.31-.14-4.98-.28l-.42-.53v-12.86h0Z"></path><path class="cls-1" d="M1404.2,59.58c0-1.87-.03-3.01-.08-3.59.61-.08,1.96-.22,3.02-.22.47,0,.56.25.56,1.64v13.53c.53.14,1.48.2,2.52.2,1.15,0,2.85,0,4.22-.14l.03.06c-.17,1.09-.73,1.87-1.43,2.26-.39.08-1.37.14-3.52.14-2.32,0-4.19-.14-4.89-.28l-.42-.53v-13.06h-.01Z"></path><path class="cls-1" d="M1417.29,59.58c0-1.87-.03-3.01-.08-3.59.62-.08,1.96-.22,3.02-.22.47,0,.56.25.56,1.64v13.53c.53.14,1.48.2,2.52.2,1.15,0,2.85,0,4.22-.14l.03.06c-.17,1.09-.73,1.87-1.43,2.26-.39.08-1.37.14-3.52.14-2.32,0-4.19-.14-4.89-.28l-.42-.53v-13.06h-.01Z"></path><path class="cls-1" d="M1430.37,59.53c0-1.87-.03-3.01-.08-3.54.5-.08,2.43-.22,3.02-.22.47,0,.56.25.56,1.5v12.53c0,1.95.06,2.87.08,3.42-.48.14-2.35.22-2.99.22-.42,0-.59-.08-.59-.56v-13.36h0Z"></path><path class="cls-1" d="M1449.91,67.57c0-1.17-.06-1.81-.11-2.48.89-.14,2.24-.42,3.02-.42.42,0,.59.17.59.75v6.29c-.53.45-1.45,1.03-2.21,1.39-.98.28-2.49.59-3.83.59-4.7,0-9.67-2.06-9.67-8.99,0-5.74,4.45-9.24,9.92-9.24,3.05,0,5.12.97,5.79,1.61.03,1.09-.78,1.92-1.68,1.75-1.26-.61-2.71-.92-4.19-.92-3.44,0-6.09,2.23-6.09,6.57,0,4.84,3.24,7.04,6.51,7.04.78,0,1.62-.17,1.96-.31v-3.65.02Z"></path><path class="cls-1" d="M1457.62,59.78c0-1.34,0-2.34-.08-3.51.78-.19,2.01-.36,3.16-.39h6.79c-.17,1.25-.5,1.78-.84,2.14-.42.17-1.37.17-2.63.17h-2.91v4.98h6.09c-.25,1.95-.87,2.31-1.84,2.31h-4.25v5.46c.64.14,1.54.2,2.6.2,1.15,0,3.19,0,4.53-.11l.06.06c-.25,1.2-.78,1.84-1.48,2.23-.39.08-1.65.14-3.8.14-2.46,0-4.31-.14-4.98-.28l-.42-.53v-12.86h0Z"></path><path class="cls-1" d="M1470.99,56.13v-.14c.53-.08,2.94-.22,3.44-.22.28,0,.5.19.78.5.89,1.28,3.19,4.76,5.2,7.85,1.26,1.98,2.29,3.54,2.96,4.96-.17-2.14-.14-3.23-.14-4.62v-7.77c0-.64.2-.75.59-.81.87-.08,1.62-.11,2.26-.11-.06,1.2-.08,2.81-.08,5.12v12.28c-.25.11-1.85.45-2.66.45-.34,0-.5-.11-.7-.39-1.45-2-2.88-4.18-5.09-7.57-1.48-2.34-2.29-3.9-3.44-6.04.17,2.81.14,4.26.14,5.68v7.3c0,.58-.17.67-.62.75-.5.08-1.4.14-2.24.11.06-1.11.08-2.73.08-5.07v-11.56l-.5-.7h.02Z"></path><path class="cls-1" d="M1504.67,70.55c-.08.95-.45,1.75-.92,2.2-.7.45-2.18.95-4.05.95-6.37,0-9.81-3.62-9.81-8.94,0-5.76,4.39-9.3,9.92-9.3,2.66,0,4.7.89,5.14,1.39.06.95-.59,1.89-1.48,1.75-.84-.36-2.15-.75-3.69-.75-3.38,0-6.15,2.2-6.15,6.65,0,3.79,2.43,6.68,6.88,6.68,1.87,0,3.35-.47,4.08-.7l.08.06h0Z"></path><path class="cls-1" d="M1508.05,59.78c0-1.34,0-2.34-.08-3.51.78-.19,2.01-.36,3.16-.39h6.79c-.17,1.25-.5,1.78-.84,2.14-.42.17-1.37.17-2.63.17h-2.91v4.98h6.09c-.25,1.95-.87,2.31-1.84,2.31h-4.25v5.46c.64.14,1.54.2,2.6.2,1.15,0,3.19,0,4.53-.11l.06.06c-.25,1.2-.78,1.84-1.48,2.23-.39.08-1.65.14-3.8.14-2.46,0-4.31-.14-4.98-.28l-.42-.53v-12.86h0Z"></path><path class="cls-1" d="M1528.51,59.81c0-1.33,0-2.48-.11-3.76.75-.11,2.66-.33,4.58-.33,4.25,0,7.21,1.45,7.21,5.65s-3.47,5.54-5.31,5.57c-.45,0-1.12-.06-1.42-.22-.42-.22-.92-1-.92-1.89.22.05.62.08.89.08,1.4,0,3.13-.72,3.13-3.54,0-2.65-1.79-3.48-3.44-3.48-.33,0-.73.03-1.12.08v11.94c0,1.95.06,2.76.08,3.31-.47.14-2.21.22-2.96.22-.42,0-.61-.08-.61-.5v-13.14h0Z"></path><path class="cls-1" d="M1546.88,72.61c0,.56-.17.67-.64.72-.78.08-2.32.11-2.88.11.05-1.11.08-2.76.08-5.09v-9.33c0-1.39,0-2.06-.06-2.84.73-.17,3.52-.47,4.81-.47,4.44,0,6.65,1.5,6.65,5.04,0,2.65-2.24,3.93-3.35,4.43.64.56,1.51,1.95,2.46,3.59,1.34,2.34,2.24,3.59,2.94,4.34v.11c-.22.17-1.26.28-2.27.28s-1.76-.28-2.49-1.25c-.75-.97-1.31-2.09-2.43-4.26-.87-1.59-1.4-1.81-2.32-1.81h-.5v6.43h0ZM1546.88,64.18c.76.08,2.29,0,2.68-.2.59-.22,1.71-1.06,1.71-2.92,0-2.31-1.45-3.28-3.19-3.28-.39,0-.87.03-1.2.08v6.32h0Z"></path><path class="cls-1" d="M1567.54,55.46c5.65,0,8.92,4.06,8.92,8.96s-3.1,9.27-9.03,9.27c-6.46,0-9-4.76-9-8.96,0-5.26,3.38-9.27,9.08-9.27,0,0,.03,0,.03,0ZM1567.2,57.63c-2.74,0-5,2.2-5,6.77s2.54,7.13,5.48,7.13c3.13,0,5.06-2.51,5.06-6.85,0-3.95-2.04-7.04-5.51-7.04h-.03Z"></path><path class="cls-1" d="M1591.75,67.57c0-1.17-.06-1.81-.11-2.48.89-.14,2.24-.42,3.02-.42.42,0,.59.17.59.75v6.29c-.53.45-1.45,1.03-2.21,1.39-.98.28-2.49.59-3.83.59-4.7,0-9.67-2.06-9.67-8.99,0-5.74,4.45-9.24,9.92-9.24,3.05,0,5.12.97,5.79,1.61.03,1.09-.78,1.92-1.68,1.75-1.26-.61-2.71-.92-4.19-.92-3.44,0-6.09,2.23-6.09,6.57,0,4.84,3.24,7.04,6.51,7.04.78,0,1.62-.17,1.96-.31v-3.65.02Z"></path><path class="cls-1" d="M1602.87,72.61c0,.56-.17.67-.64.72-.78.08-2.32.11-2.88.11.06-1.11.08-2.76.08-5.09v-9.33c0-1.39,0-2.06-.06-2.84.73-.17,3.52-.47,4.81-.47,4.45,0,6.65,1.5,6.65,5.04,0,2.65-2.24,3.93-3.35,4.43.64.56,1.51,1.95,2.46,3.59,1.34,2.34,2.24,3.59,2.94,4.34v.11c-.22.17-1.26.28-2.27.28s-1.76-.28-2.49-1.25c-.76-.97-1.31-2.09-2.43-4.26-.87-1.59-1.4-1.81-2.32-1.81h-.5v6.43h0ZM1602.87,64.18c.75.08,2.29,0,2.68-.2.59-.22,1.71-1.06,1.71-2.92,0-2.31-1.45-3.28-3.19-3.28-.39,0-.87.03-1.2.08v6.32h0Z"></path><path class="cls-1" d="M1619.84,68.49c-.64,1.61-1.45,3.67-1.82,4.57-.11.25-.33.39-.78.39-.62,0-1.85-.17-2.46-.36v-.11c1.45-3.4,5.81-13.75,6.88-16.29l-.22-.59c1.03-.22,2.6-.33,2.93-.33.25,0,.5.17.64.5,1.28,3.06,3.41,8.55,4.39,10.97,1.15,2.84,1.82,4.59,2.38,5.76v.11c-.61.2-2.52.34-3.13.34-.45,0-.67-.14-.95-.89-.5-1.42-.89-2.48-1.54-4.07h-6.32ZM1625.49,66.18c-1.29-3.45-2.12-5.54-2.43-6.43-.7,1.84-1.48,4.04-2.43,6.43h4.86Z"></path><path class="cls-1" d="M1649.56,56.16c.42-.22,2.29-.39,2.96-.39.28,0,.45.17.53.86l1.48,10.25c.45,2.92.75,4.98,1.01,6.32-.47.14-2.24.25-2.79.25-.36,0-.73-.14-.78-.7-.17-1.42-.34-2.92-.64-5.87l-.81-6.99c-.78,2.42-2.43,7.04-4.22,12.28-.2.56-.39.78-1.01.92-.5.08-1.17.2-1.73.2-.67-2.17-3.13-9.55-4.39-13.34-.39,3.42-1.23,9.8-1.65,13.06-.06.31-.2.45-.5.45-.75,0-2.04,0-2.49-.25.5-2.95,1.62-10.16,2.71-16.51l-.08-.53c.7-.14,1.71-.39,3.05-.39.42.11.64.5,1.15,1.92l3.77,10.38c1.4-3.65,3.27-8.66,4.45-11.5v-.42h-.02Z"></path></g></g></svg>